<?xml version="1.0" encoding="utf-8" standalone="no"?>
<!DOCTYPE svg PUBLIC "-//W3C//DTD SVG 1.1//EN"
  "http://www.w3.org/Graphics/SVG/1.1/DTD/svg11.dtd">
<svg xmlns:xlink="http://www.w3.org/1999/xlink" width="720pt" height="576pt" viewBox="0 0 720 576" xmlns="http://www.w3.org/2000/svg" version="1.1">
 <metadata>
  <rdf:RDF xmlns:dc="http://purl.org/dc/elements/1.1/" xmlns:cc="http://creativecommons.org/ns#" xmlns:rdf="http://www.w3.org/1999/02/22-rdf-syntax-ns#">
   <cc:Work>
    <dc:type rdf:resource="http://purl.org/dc/dcmitype/StillImage"/>
    <dc:date>2024-09-10T10:02:54.595152</dc:date>
    <dc:format>image/svg+xml</dc:format>
    <dc:creator>
     <cc:Agent>
      <dc:title>Matplotlib v3.5.2, https://matplotlib.org/</dc:title>
     </cc:Agent>
    </dc:creator>
   </cc:Work>
  </rdf:RDF>
 </metadata>
 <defs>
  <style type="text/css">*{stroke-linejoin: round; stroke-linecap: butt}</style>
 </defs>
 <g id="figure_1">
  <g id="patch_1">
   <path d="M 0 576 
L 720 576 
L 720 0 
L 0 0 
z
" style="fill: #ffffff"/>
  </g>
  <g id="axes_1">
   <g id="patch_2">
    <path d="M 62.57 120.7 
L 709.2 120.7 
L 709.2 25.44 
L 62.57 25.44 
z
" style="fill: #ffffff"/>
   </g>
   <g id="matplotlib.axis_1">
    <g id="xtick_1">
     <g id="line2d_1">
      <defs>
       <path id="m233e0e9a74" d="M 0 0 
L 0 3.5 
" style="stroke: #000000; stroke-width: 0.8"/>
      </defs>
      <g>
       <use xlink:href="#m233e0e9a74" x="91.962273" y="120.7" style="stroke: #000000; stroke-width: 0.8"/>
      </g>
     </g>
     <g id="text_1">
      <!-- 20.00 -->
      <g transform="translate(77.64821 135.298437)scale(0.1 -0.1)">
       <defs>
        <path id="DejaVuSans-32" d="M 1228 531 
L 3431 531 
L 3431 0 
L 469 0 
L 469 531 
Q 828 903 1448 1529 
Q 2069 2156 2228 2338 
Q 2531 2678 2651 2914 
Q 2772 3150 2772 3378 
Q 2772 3750 2511 3984 
Q 2250 4219 1831 4219 
Q 1534 4219 1204 4116 
Q 875 4013 500 3803 
L 500 4441 
Q 881 4594 1212 4672 
Q 1544 4750 1819 4750 
Q 2544 4750 2975 4387 
Q 3406 4025 3406 3419 
Q 3406 3131 3298 2873 
Q 3191 2616 2906 2266 
Q 2828 2175 2409 1742 
Q 1991 1309 1228 531 
z
" transform="scale(0.015625)"/>
        <path id="DejaVuSans-30" d="M 2034 4250 
Q 1547 4250 1301 3770 
Q 1056 3291 1056 2328 
Q 1056 1369 1301 889 
Q 1547 409 2034 409 
Q 2525 409 2770 889 
Q 3016 1369 3016 2328 
Q 3016 3291 2770 3770 
Q 2525 4250 2034 4250 
z
M 2034 4750 
Q 2819 4750 3233 4129 
Q 3647 3509 3647 2328 
Q 3647 1150 3233 529 
Q 2819 -91 2034 -91 
Q 1250 -91 836 529 
Q 422 1150 422 2328 
Q 422 3509 836 4129 
Q 1250 4750 2034 4750 
z
" transform="scale(0.015625)"/>
        <path id="DejaVuSans-2e" d="M 684 794 
L 1344 794 
L 1344 0 
L 684 0 
L 684 794 
z
" transform="scale(0.015625)"/>
       </defs>
       <use xlink:href="#DejaVuSans-32"/>
       <use xlink:href="#DejaVuSans-30" x="63.623047"/>
       <use xlink:href="#DejaVuSans-2e" x="127.246094"/>
       <use xlink:href="#DejaVuSans-30" x="159.033203"/>
       <use xlink:href="#DejaVuSans-30" x="222.65625"/>
      </g>
     </g>
    </g>
    <g id="xtick_2">
     <g id="line2d_2">
      <g>
       <use xlink:href="#m233e0e9a74" x="165.479713" y="120.7" style="stroke: #000000; stroke-width: 0.8"/>
      </g>
     </g>
     <g id="text_2">
      <!-- 20.25 -->
      <g transform="translate(151.165651 135.298437)scale(0.1 -0.1)">
       <defs>
        <path id="DejaVuSans-35" d="M 691 4666 
L 3169 4666 
L 3169 4134 
L 1269 4134 
L 1269 2991 
Q 1406 3038 1543 3061 
Q 1681 3084 1819 3084 
Q 2600 3084 3056 2656 
Q 3513 2228 3513 1497 
Q 3513 744 3044 326 
Q 2575 -91 1722 -91 
Q 1428 -91 1123 -41 
Q 819 9 494 109 
L 494 744 
Q 775 591 1075 516 
Q 1375 441 1709 441 
Q 2250 441 2565 725 
Q 2881 1009 2881 1497 
Q 2881 1984 2565 2268 
Q 2250 2553 1709 2553 
Q 1456 2553 1204 2497 
Q 953 2441 691 2322 
L 691 4666 
z
" transform="scale(0.015625)"/>
       </defs>
       <use xlink:href="#DejaVuSans-32"/>
       <use xlink:href="#DejaVuSans-30" x="63.623047"/>
       <use xlink:href="#DejaVuSans-2e" x="127.246094"/>
       <use xlink:href="#DejaVuSans-32" x="159.033203"/>
       <use xlink:href="#DejaVuSans-35" x="222.65625"/>
      </g>
     </g>
    </g>
    <g id="xtick_3">
     <g id="line2d_3">
      <g>
       <use xlink:href="#m233e0e9a74" x="238.997154" y="120.7" style="stroke: #000000; stroke-width: 0.8"/>
      </g>
     </g>
     <g id="text_3">
      <!-- 20.50 -->
      <g transform="translate(224.683091 135.298437)scale(0.1 -0.1)">
       <use xlink:href="#DejaVuSans-32"/>
       <use xlink:href="#DejaVuSans-30" x="63.623047"/>
       <use xlink:href="#DejaVuSans-2e" x="127.246094"/>
       <use xlink:href="#DejaVuSans-35" x="159.033203"/>
       <use xlink:href="#DejaVuSans-30" x="222.65625"/>
      </g>
     </g>
    </g>
    <g id="xtick_4">
     <g id="line2d_4">
      <g>
       <use xlink:href="#m233e0e9a74" x="312.514594" y="120.7" style="stroke: #000000; stroke-width: 0.8"/>
      </g>
     </g>
     <g id="text_4">
      <!-- 20.75 -->
      <g transform="translate(298.200532 135.298437)scale(0.1 -0.1)">
       <defs>
        <path id="DejaVuSans-37" d="M 525 4666 
L 3525 4666 
L 3525 4397 
L 1831 0 
L 1172 0 
L 2766 4134 
L 525 4134 
L 525 4666 
z
" transform="scale(0.015625)"/>
       </defs>
       <use xlink:href="#DejaVuSans-32"/>
       <use xlink:href="#DejaVuSans-30" x="63.623047"/>
       <use xlink:href="#DejaVuSans-2e" x="127.246094"/>
       <use xlink:href="#DejaVuSans-37" x="159.033203"/>
       <use xlink:href="#DejaVuSans-35" x="222.65625"/>
      </g>
     </g>
    </g>
    <g id="xtick_5">
     <g id="line2d_5">
      <g>
       <use xlink:href="#m233e0e9a74" x="386.032035" y="120.7" style="stroke: #000000; stroke-width: 0.8"/>
      </g>
     </g>
     <g id="text_5">
      <!-- 21.00 -->
      <g transform="translate(371.717972 135.298437)scale(0.1 -0.1)">
       <defs>
        <path id="DejaVuSans-31" d="M 794 531 
L 1825 531 
L 1825 4091 
L 703 3866 
L 703 4441 
L 1819 4666 
L 2450 4666 
L 2450 531 
L 3481 531 
L 3481 0 
L 794 0 
L 794 531 
z
" transform="scale(0.015625)"/>
       </defs>
       <use xlink:href="#DejaVuSans-32"/>
       <use xlink:href="#DejaVuSans-31" x="63.623047"/>
       <use xlink:href="#DejaVuSans-2e" x="127.246094"/>
       <use xlink:href="#DejaVuSans-30" x="159.033203"/>
       <use xlink:href="#DejaVuSans-30" x="222.65625"/>
      </g>
     </g>
    </g>
    <g id="xtick_6">
     <g id="line2d_6">
      <g>
       <use xlink:href="#m233e0e9a74" x="459.549475" y="120.7" style="stroke: #000000; stroke-width: 0.8"/>
      </g>
     </g>
     <g id="text_6">
      <!-- 21.25 -->
      <g transform="translate(445.235413 135.298437)scale(0.1 -0.1)">
       <use xlink:href="#DejaVuSans-32"/>
       <use xlink:href="#DejaVuSans-31" x="63.623047"/>
       <use xlink:href="#DejaVuSans-2e" x="127.246094"/>
       <use xlink:href="#DejaVuSans-32" x="159.033203"/>
       <use xlink:href="#DejaVuSans-35" x="222.65625"/>
      </g>
     </g>
    </g>
    <g id="xtick_7">
     <g id="line2d_7">
      <g>
       <use xlink:href="#m233e0e9a74" x="533.066916" y="120.7" style="stroke: #000000; stroke-width: 0.8"/>
      </g>
     </g>
     <g id="text_7">
      <!-- 21.50 -->
      <g transform="translate(518.752853 135.298437)scale(0.1 -0.1)">
       <use xlink:href="#DejaVuSans-32"/>
       <use xlink:href="#DejaVuSans-31" x="63.623047"/>
       <use xlink:href="#DejaVuSans-2e" x="127.246094"/>
       <use xlink:href="#DejaVuSans-35" x="159.033203"/>
       <use xlink:href="#DejaVuSans-30" x="222.65625"/>
      </g>
     </g>
    </g>
    <g id="xtick_8">
     <g id="line2d_8">
      <g>
       <use xlink:href="#m233e0e9a74" x="606.584356" y="120.7" style="stroke: #000000; stroke-width: 0.8"/>
      </g>
     </g>
     <g id="text_8">
      <!-- 21.75 -->
      <g transform="translate(592.270294 135.298437)scale(0.1 -0.1)">
       <use xlink:href="#DejaVuSans-32"/>
       <use xlink:href="#DejaVuSans-31" x="63.623047"/>
       <use xlink:href="#DejaVuSans-2e" x="127.246094"/>
       <use xlink:href="#DejaVuSans-37" x="159.033203"/>
       <use xlink:href="#DejaVuSans-35" x="222.65625"/>
      </g>
     </g>
    </g>
    <g id="xtick_9">
     <g id="line2d_9">
      <g>
       <use xlink:href="#m233e0e9a74" x="680.101797" y="120.7" style="stroke: #000000; stroke-width: 0.8"/>
      </g>
     </g>
     <g id="text_9">
      <!-- 22.00 -->
      <g transform="translate(665.787735 135.298437)scale(0.1 -0.1)">
       <use xlink:href="#DejaVuSans-32"/>
       <use xlink:href="#DejaVuSans-32" x="63.623047"/>
       <use xlink:href="#DejaVuSans-2e" x="127.246094"/>
       <use xlink:href="#DejaVuSans-30" x="159.033203"/>
       <use xlink:href="#DejaVuSans-30" x="222.65625"/>
      </g>
     </g>
    </g>
   </g>
   <g id="matplotlib.axis_2">
    <g id="ytick_1">
     <g id="line2d_10">
      <defs>
       <path id="mb657aa6f5e" d="M 0 0 
L -3.5 0 
" style="stroke: #000000; stroke-width: 0.8"/>
      </defs>
      <g>
       <use xlink:href="#mb657aa6f5e" x="62.57" y="120.364653" style="stroke: #000000; stroke-width: 0.8"/>
      </g>
     </g>
     <g id="text_10">
      <!-- −0.10 -->
      <g transform="translate(24.924688 124.163872)scale(0.1 -0.1)">
       <defs>
        <path id="DejaVuSans-2212" d="M 678 2272 
L 4684 2272 
L 4684 1741 
L 678 1741 
L 678 2272 
z
" transform="scale(0.015625)"/>
       </defs>
       <use xlink:href="#DejaVuSans-2212"/>
       <use xlink:href="#DejaVuSans-30" x="83.789062"/>
       <use xlink:href="#DejaVuSans-2e" x="147.412109"/>
       <use xlink:href="#DejaVuSans-31" x="179.199219"/>
       <use xlink:href="#DejaVuSans-30" x="242.822266"/>
      </g>
     </g>
    </g>
    <g id="ytick_2">
     <g id="line2d_11">
      <g>
       <use xlink:href="#mb657aa6f5e" x="62.57" y="95.889253" style="stroke: #000000; stroke-width: 0.8"/>
      </g>
     </g>
     <g id="text_11">
      <!-- −0.05 -->
      <g transform="translate(24.924688 99.688472)scale(0.1 -0.1)">
       <use xlink:href="#DejaVuSans-2212"/>
       <use xlink:href="#DejaVuSans-30" x="83.789062"/>
       <use xlink:href="#DejaVuSans-2e" x="147.412109"/>
       <use xlink:href="#DejaVuSans-30" x="179.199219"/>
       <use xlink:href="#DejaVuSans-35" x="242.822266"/>
      </g>
     </g>
    </g>
    <g id="ytick_3">
     <g id="line2d_12">
      <g>
       <use xlink:href="#mb657aa6f5e" x="62.57" y="71.413852" style="stroke: #000000; stroke-width: 0.8"/>
      </g>
     </g>
     <g id="text_12">
      <!-- 0.00 -->
      <g transform="translate(33.304375 75.213071)scale(0.1 -0.1)">
       <use xlink:href="#DejaVuSans-30"/>
       <use xlink:href="#DejaVuSans-2e" x="63.623047"/>
       <use xlink:href="#DejaVuSans-30" x="95.410156"/>
       <use xlink:href="#DejaVuSans-30" x="159.033203"/>
      </g>
     </g>
    </g>
    <g id="ytick_4">
     <g id="line2d_13">
      <g>
       <use xlink:href="#mb657aa6f5e" x="62.57" y="46.938452" style="stroke: #000000; stroke-width: 0.8"/>
      </g>
     </g>
     <g id="text_13">
      <!-- 0.05 -->
      <g transform="translate(33.304375 50.737671)scale(0.1 -0.1)">
       <use xlink:href="#DejaVuSans-30"/>
       <use xlink:href="#DejaVuSans-2e" x="63.623047"/>
       <use xlink:href="#DejaVuSans-30" x="95.410156"/>
       <use xlink:href="#DejaVuSans-35" x="159.033203"/>
      </g>
     </g>
    </g>
    <g id="text_14">
     <!-- Amplitude -->
     <g transform="translate(18.845 98.692656)rotate(-90)scale(0.1 -0.1)">
      <defs>
       <path id="DejaVuSans-41" d="M 2188 4044 
L 1331 1722 
L 3047 1722 
L 2188 4044 
z
M 1831 4666 
L 2547 4666 
L 4325 0 
L 3669 0 
L 3244 1197 
L 1141 1197 
L 716 0 
L 50 0 
L 1831 4666 
z
" transform="scale(0.015625)"/>
       <path id="DejaVuSans-6d" d="M 3328 2828 
Q 3544 3216 3844 3400 
Q 4144 3584 4550 3584 
Q 5097 3584 5394 3201 
Q 5691 2819 5691 2113 
L 5691 0 
L 5113 0 
L 5113 2094 
Q 5113 2597 4934 2840 
Q 4756 3084 4391 3084 
Q 3944 3084 3684 2787 
Q 3425 2491 3425 1978 
L 3425 0 
L 2847 0 
L 2847 2094 
Q 2847 2600 2669 2842 
Q 2491 3084 2119 3084 
Q 1678 3084 1418 2786 
Q 1159 2488 1159 1978 
L 1159 0 
L 581 0 
L 581 3500 
L 1159 3500 
L 1159 2956 
Q 1356 3278 1631 3431 
Q 1906 3584 2284 3584 
Q 2666 3584 2933 3390 
Q 3200 3197 3328 2828 
z
" transform="scale(0.015625)"/>
       <path id="DejaVuSans-70" d="M 1159 525 
L 1159 -1331 
L 581 -1331 
L 581 3500 
L 1159 3500 
L 1159 2969 
Q 1341 3281 1617 3432 
Q 1894 3584 2278 3584 
Q 2916 3584 3314 3078 
Q 3713 2572 3713 1747 
Q 3713 922 3314 415 
Q 2916 -91 2278 -91 
Q 1894 -91 1617 61 
Q 1341 213 1159 525 
z
M 3116 1747 
Q 3116 2381 2855 2742 
Q 2594 3103 2138 3103 
Q 1681 3103 1420 2742 
Q 1159 2381 1159 1747 
Q 1159 1113 1420 752 
Q 1681 391 2138 391 
Q 2594 391 2855 752 
Q 3116 1113 3116 1747 
z
" transform="scale(0.015625)"/>
       <path id="DejaVuSans-6c" d="M 603 4863 
L 1178 4863 
L 1178 0 
L 603 0 
L 603 4863 
z
" transform="scale(0.015625)"/>
       <path id="DejaVuSans-69" d="M 603 3500 
L 1178 3500 
L 1178 0 
L 603 0 
L 603 3500 
z
M 603 4863 
L 1178 4863 
L 1178 4134 
L 603 4134 
L 603 4863 
z
" transform="scale(0.015625)"/>
       <path id="DejaVuSans-74" d="M 1172 4494 
L 1172 3500 
L 2356 3500 
L 2356 3053 
L 1172 3053 
L 1172 1153 
Q 1172 725 1289 603 
Q 1406 481 1766 481 
L 2356 481 
L 2356 0 
L 1766 0 
Q 1100 0 847 248 
Q 594 497 594 1153 
L 594 3053 
L 172 3053 
L 172 3500 
L 594 3500 
L 594 4494 
L 1172 4494 
z
" transform="scale(0.015625)"/>
       <path id="DejaVuSans-75" d="M 544 1381 
L 544 3500 
L 1119 3500 
L 1119 1403 
Q 1119 906 1312 657 
Q 1506 409 1894 409 
Q 2359 409 2629 706 
Q 2900 1003 2900 1516 
L 2900 3500 
L 3475 3500 
L 3475 0 
L 2900 0 
L 2900 538 
Q 2691 219 2414 64 
Q 2138 -91 1772 -91 
Q 1169 -91 856 284 
Q 544 659 544 1381 
z
M 1991 3584 
L 1991 3584 
z
" transform="scale(0.015625)"/>
       <path id="DejaVuSans-64" d="M 2906 2969 
L 2906 4863 
L 3481 4863 
L 3481 0 
L 2906 0 
L 2906 525 
Q 2725 213 2448 61 
Q 2172 -91 1784 -91 
Q 1150 -91 751 415 
Q 353 922 353 1747 
Q 353 2572 751 3078 
Q 1150 3584 1784 3584 
Q 2172 3584 2448 3432 
Q 2725 3281 2906 2969 
z
M 947 1747 
Q 947 1113 1208 752 
Q 1469 391 1925 391 
Q 2381 391 2643 752 
Q 2906 1113 2906 1747 
Q 2906 2381 2643 2742 
Q 2381 3103 1925 3103 
Q 1469 3103 1208 2742 
Q 947 2381 947 1747 
z
" transform="scale(0.015625)"/>
       <path id="DejaVuSans-65" d="M 3597 1894 
L 3597 1613 
L 953 1613 
Q 991 1019 1311 708 
Q 1631 397 2203 397 
Q 2534 397 2845 478 
Q 3156 559 3463 722 
L 3463 178 
Q 3153 47 2828 -22 
Q 2503 -91 2169 -91 
Q 1331 -91 842 396 
Q 353 884 353 1716 
Q 353 2575 817 3079 
Q 1281 3584 2069 3584 
Q 2775 3584 3186 3129 
Q 3597 2675 3597 1894 
z
M 3022 2063 
Q 3016 2534 2758 2815 
Q 2500 3097 2075 3097 
Q 1594 3097 1305 2825 
Q 1016 2553 972 2059 
L 3022 2063 
z
" transform="scale(0.015625)"/>
      </defs>
      <use xlink:href="#DejaVuSans-41"/>
      <use xlink:href="#DejaVuSans-6d" x="68.408203"/>
      <use xlink:href="#DejaVuSans-70" x="165.820312"/>
      <use xlink:href="#DejaVuSans-6c" x="229.296875"/>
      <use xlink:href="#DejaVuSans-69" x="257.080078"/>
      <use xlink:href="#DejaVuSans-74" x="284.863281"/>
      <use xlink:href="#DejaVuSans-75" x="324.072266"/>
      <use xlink:href="#DejaVuSans-64" x="387.451172"/>
      <use xlink:href="#DejaVuSans-65" x="450.927734"/>
     </g>
    </g>
   </g>
   <g id="line2d_14">
    <path d="M 91.962273 63.810959 
L 97.255528 78.669711 
L 98.431807 81.160284 
L 99.608087 83.079994 
L 100.490296 84.09561 
L 101.372505 84.723604 
L 101.960645 84.922346 
L 102.548784 84.945709 
L 103.136924 84.797131 
L 104.019133 84.265884 
L 104.901342 83.393432 
L 105.783552 82.223534 
L 106.959831 80.297365 
L 109.018319 76.372166 
L 111.076807 72.5753 
L 112.253086 70.839458 
L 113.135296 69.869063 
L 114.017505 69.24417 
L 114.605644 69.040547 
L 115.193784 69.017816 
L 115.781923 69.181457 
L 116.370063 69.533635 
L 117.252272 70.411756 
L 118.134482 71.691812 
L 119.016691 73.338067 
L 120.19297 76.011066 
L 121.957388 80.701941 
L 124.898086 88.590925 
L 126.074365 91.118524 
L 126.956574 92.584858 
L 127.838784 93.602496 
L 128.426923 94.002444 
L 129.015063 94.163656 
L 129.603202 94.076224 
L 130.191342 93.733769 
L 130.779481 93.133536 
L 131.367621 92.276433 
L 132.24983 90.520055 
L 133.132039 88.22692 
L 134.308318 84.417618 
L 135.778667 78.667558 
L 137.837156 69.456304 
L 141.071923 54.822598 
L 142.542272 49.076532 
L 143.718551 45.181778 
L 144.89483 42.019416 
L 145.777039 40.163768 
L 146.659248 38.762349 
L 147.541458 37.814178 
L 148.129597 37.429323 
L 148.717737 37.237017 
L 149.305876 37.23154 
L 149.894016 37.406416 
L 150.482155 37.754697 
L 151.364365 38.586624 
L 152.246574 39.768958 
L 153.128783 41.279828 
L 154.305062 43.773239 
L 155.481341 46.782856 
L 156.95169 51.23586 
L 158.422039 56.429527 
L 160.186458 63.596078 
L 162.244946 73.101428 
L 165.185644 88.007919 
L 167.832271 101.031584 
L 169.30262 107.18607 
L 170.478899 111.150941 
L 171.361109 113.413815 
L 172.243318 114.970858 
L 172.831457 115.580261 
L 173.419597 115.826 
L 174.007736 115.694575 
L 174.595876 115.176735 
L 175.184015 114.267792 
L 175.772155 112.967868 
L 176.654364 110.297407 
L 177.536574 106.798337 
L 178.712853 100.957471 
L 180.183201 92.083381 
L 182.24169 77.763079 
L 185.476457 55.017349 
L 186.946806 46.313037 
L 188.123085 40.6694 
L 189.005294 37.358319 
L 189.887504 34.913867 
L 190.475643 33.787504 
L 191.063783 33.071664 
L 191.651922 32.767447 
L 192.240062 32.871 
L 192.828201 33.373686 
L 193.416341 34.262307 
L 194.00448 35.519399 
L 194.886689 38.04814 
L 195.768899 41.270263 
L 196.945178 46.468105 
L 198.415527 54.030732 
L 204.002852 84.016663 
L 205.179131 88.85648 
L 206.35541 92.750472 
L 207.237619 94.982307 
L 208.119829 96.589959 
L 208.707968 97.307109 
L 209.296108 97.739191 
L 209.884247 97.888109 
L 210.472387 97.758408 
L 211.060526 97.357172 
L 211.648666 96.693899 
L 212.530875 95.234029 
L 213.413084 93.260205 
L 214.589364 89.930806 
L 216.059712 84.877056 
L 218.118201 76.780934 
L 221.352968 63.974476 
L 222.823317 59.014018 
L 223.999596 55.728071 
L 225.175875 53.173546 
L 226.058084 51.785441 
L 226.940294 50.870747 
L 227.528433 50.526811 
L 228.116573 50.393717 
L 228.704712 50.466935 
L 229.292852 50.739382 
L 229.880991 51.201516 
L 230.7632 52.223826 
L 231.64541 53.596799 
L 232.821689 55.871255 
L 234.586107 59.909084 
L 237.820875 67.529201 
L 239.291224 70.382301 
L 240.467503 72.18064 
L 241.349712 73.209578 
L 242.231921 73.957308 
L 243.11413 74.433136 
L 243.99634 74.660336 
L 244.878549 74.675002 
L 246.054828 74.446773 
L 249.877735 73.397502 
L 250.759944 73.461071 
L 251.642154 73.754914 
L 252.524363 74.316616 
L 253.406572 75.170324 
L 254.288781 76.3251 
L 255.46506 78.31866 
L 256.64134 80.77149 
L 258.405758 85.058244 
L 261.346456 92.39166 
L 262.522735 94.801372 
L 263.404944 96.223626 
L 264.287153 97.232217 
L 264.875293 97.643185 
L 265.463432 97.826915 
L 266.051572 97.771437 
L 266.639711 97.468202 
L 267.227851 96.912262 
L 267.81599 96.102382 
L 268.6982 94.417948 
L 269.580409 92.192751 
L 270.756688 88.459442 
L 272.227037 82.770261 
L 274.285525 73.570752 
L 277.814362 57.581392 
L 279.284711 51.932623 
L 280.46099 48.155885 
L 281.637269 45.144923 
L 282.519479 43.422047 
L 283.401688 42.166293 
L 284.283897 41.37169 
L 284.872037 41.090182 
L 285.460176 40.998883 
L 286.048316 41.088773 
L 286.636455 41.349473 
L 287.518665 42.035431 
L 288.400874 43.037628 
L 289.577153 44.788946 
L 291.047502 47.496233 
L 293.10599 51.908385 
L 301.339943 70.320584 
L 303.986571 75.489149 
L 306.633199 80.196423 
L 309.279827 84.430789 
L 311.632385 87.790524 
L 313.984943 90.776738 
L 316.337501 93.386626 
L 318.10192 95.057974 
L 319.572269 96.203406 
L 320.748548 96.904205 
L 321.924827 97.356595 
L 322.807036 97.494731 
L 323.689245 97.427247 
L 324.571455 97.122534 
L 325.453664 96.548729 
L 326.335873 95.675209 
L 327.218082 94.474247 
L 328.100292 92.922737 
L 329.276571 90.28092 
L 330.45285 86.970004 
L 331.629129 83.003745 
L 333.099478 77.201696 
L 334.863896 69.24312 
L 340.745292 41.560037 
L 341.921571 37.266665 
L 343.09785 33.825163 
L 343.980059 31.889811 
L 344.862268 30.56006 
L 345.450408 30.026436 
L 346.038547 29.782402 
L 346.626687 29.830838 
L 347.214826 30.171583 
L 347.802966 30.801449 
L 348.391105 31.714276 
L 349.273315 33.593532 
L 350.155524 36.046558 
L 351.331803 40.114252 
L 352.802152 46.253111 
L 354.56657 54.684658 
L 359.565756 79.233411 
L 361.036105 85.229257 
L 362.212384 89.312823 
L 363.388663 92.687419 
L 364.564942 95.319124 
L 365.447152 96.802827 
L 366.329361 97.876291 
L 367.21157 98.556982 
L 368.093779 98.869015 
L 368.975989 98.841809 
L 369.858198 98.508656 
L 370.740407 97.905278 
L 371.916686 96.743911 
L 373.092965 95.253122 
L 374.563314 93.047203 
L 376.621802 89.55204 
L 380.444709 82.524728 
L 391.325291 62.292302 
L 392.795639 60.18891 
L 393.971918 58.817934 
L 395.148198 57.774701 
L 396.030407 57.226983 
L 396.912616 56.887901 
L 397.794825 56.756468 
L 398.677035 56.824008 
L 399.853314 57.193923 
L 401.029593 57.827569 
L 402.794011 59.092596 
L 405.440639 61.035844 
L 406.616918 61.659617 
L 407.793197 62.018063 
L 408.675407 62.080639 
L 409.557616 61.954835 
L 410.439825 61.643145 
L 411.616104 60.966744 
L 413.086453 59.810627 
L 415.733081 57.598477 
L 416.61529 57.079931 
L 417.497499 56.795997 
L 418.085639 56.773824 
L 418.673778 56.909637 
L 419.261918 57.222487 
L 419.850058 57.729332 
L 420.732267 58.884097 
L 421.614476 60.543006 
L 422.496685 62.724475 
L 423.378895 65.427462 
L 424.555174 69.802139 
L 426.025523 76.343842 
L 428.084011 86.840812 
L 431.024708 101.972521 
L 432.495057 108.30703 
L 433.671336 112.268302 
L 434.553546 114.434594 
L 435.141685 115.449732 
L 435.729825 116.099521 
L 436.317964 116.37 
L 436.906104 116.251903 
L 437.494243 115.740806 
L 438.082383 114.837201 
L 438.670522 113.546495 
L 439.552732 110.908296 
L 440.434941 107.477254 
L 441.61122 101.80284 
L 443.081569 93.275917 
L 445.140057 79.662607 
L 448.374824 58.030412 
L 449.845173 49.509912 
L 451.021452 43.729811 
L 452.197731 39.048646 
L 453.079941 36.323677 
L 453.96215 34.299077 
L 454.550289 33.341454 
L 455.138429 32.694671 
L 455.726569 32.352666 
L 456.314708 32.306365 
L 456.902848 32.543902 
L 457.490987 33.050854 
L 458.079127 33.810507 
L 458.961336 35.382337 
L 459.843545 37.409975 
L 461.019824 40.689364 
L 462.784243 46.450247 
L 467.489359 62.37159 
L 468.959708 66.441752 
L 470.430057 69.803693 
L 471.606336 71.968485 
L 472.782615 73.698934 
L 473.958894 75.05773 
L 475.429243 76.3663 
L 477.487731 77.826695 
L 479.546219 79.332525 
L 481.016568 80.659721 
L 482.486917 82.275661 
L 484.251335 84.567123 
L 488.662382 90.574003 
L 489.838661 91.759191 
L 490.72087 92.411222 
L 491.603079 92.822348 
L 492.485289 92.96694 
L 493.367498 92.828604 
L 494.249707 92.400986 
L 495.131917 91.688005 
L 496.014126 90.703544 
L 497.190405 89.00951 
L 498.660754 86.388319 
L 500.719242 82.11041 
L 505.130289 72.719239 
L 507.188777 68.947816 
L 509.247265 65.652668 
L 511.893893 61.864795 
L 516.599009 55.533574 
L 518.363428 53.443122 
L 519.539707 52.301757 
L 520.715986 51.466416 
L 521.598195 51.095229 
L 522.480405 50.981456 
L 523.362614 51.153467 
L 524.244823 51.631344 
L 525.127032 52.425013 
L 526.009242 53.532914 
L 527.185521 55.473362 
L 528.3618 57.880415 
L 529.832149 61.388341 
L 534.831335 73.891469 
L 536.007614 76.153498 
L 537.183893 77.93554 
L 538.066102 78.929938 
L 538.948311 79.627487 
L 539.83052 80.039634 
L 540.71273 80.190565 
L 541.594939 80.115785 
L 542.771218 79.743486 
L 544.535637 78.857746 
L 546.594125 77.860443 
L 547.770404 77.538248 
L 548.652613 77.481752 
L 549.534823 77.607354 
L 550.417032 77.921989 
L 551.593311 78.622103 
L 552.76959 79.592586 
L 554.828078 81.654827 
L 556.592497 83.3491 
L 557.768776 84.191064 
L 558.650985 84.576408 
L 559.533195 84.697734 
L 560.415404 84.518056 
L 561.297613 84.012571 
L 562.179822 83.170129 
L 563.062032 81.994032 
L 564.238311 79.939727 
L 565.41459 77.405688 
L 567.179008 72.971217 
L 571.001915 63.08441 
L 572.178194 60.622629 
L 573.354473 58.668108 
L 574.236683 57.587502 
L 575.118892 56.861673 
L 576.001101 56.498396 
L 576.589241 56.455526 
L 577.17738 56.567015 
L 578.05959 57.007853 
L 578.941799 57.747726 
L 580.118078 59.127789 
L 581.588427 61.3224 
L 584.529124 66.351337 
L 586.587613 69.609646 
L 588.057961 71.525296 
L 589.234241 72.749688 
L 590.41052 73.690487 
L 591.586799 74.36179 
L 592.763078 74.794049 
L 594.233426 75.060971 
L 595.997845 75.096972 
L 598.644473 74.856604 
L 603.937729 74.32912 
L 607.466566 74.230338 
L 610.995403 74.353708 
L 617.759007 74.683123 
L 619.523426 74.473701 
L 620.993775 74.082044 
L 622.464124 73.447592 
L 623.934472 72.547273 
L 625.404821 71.384807 
L 627.16924 69.69624 
L 633.050635 63.698336 
L 634.226914 62.89409 
L 635.403193 62.362906 
L 636.285402 62.170112 
L 637.167612 62.168035 
L 638.049821 62.363987 
L 638.93203 62.759656 
L 640.108309 63.59009 
L 641.284588 64.742667 
L 642.754937 66.571371 
L 644.519356 69.181184 
L 649.224472 76.444198 
L 650.694821 78.197448 
L 651.8711 79.253358 
L 652.753309 79.809855 
L 653.635518 80.148965 
L 654.517728 80.263898 
L 655.399937 80.155022 
L 656.282146 79.83005 
L 657.164356 79.303932 
L 658.340635 78.328066 
L 659.810983 76.765776 
L 662.457611 73.503031 
L 664.5161 71.120773 
L 665.986448 69.760086 
L 667.162728 68.954283 
L 668.339007 68.42532 
L 669.515286 68.171041 
L 670.691565 68.166969 
L 671.867844 68.370445 
L 673.632262 68.94293 
L 678.631448 70.78294 
L 679.807727 71.045642 
L 679.807727 71.045642 
" clip-path="url(#pfc001f799b)" style="fill: none; stroke: #0000ff; stroke-width: 1.5; stroke-linecap: square"/>
   </g>
   <g id="patch_3">
    <path d="M 62.57 120.7 
L 62.57 25.44 
" style="fill: none; stroke: #000000; stroke-width: 0.8; stroke-linejoin: miter; stroke-linecap: square"/>
   </g>
   <g id="patch_4">
    <path d="M 709.2 120.7 
L 709.2 25.44 
" style="fill: none; stroke: #000000; stroke-width: 0.8; stroke-linejoin: miter; stroke-linecap: square"/>
   </g>
   <g id="patch_5">
    <path d="M 62.57 120.7 
L 709.2 120.7 
" style="fill: none; stroke: #000000; stroke-width: 0.8; stroke-linejoin: miter; stroke-linecap: square"/>
   </g>
   <g id="patch_6">
    <path d="M 62.57 25.44 
L 709.2 25.44 
" style="fill: none; stroke: #000000; stroke-width: 0.8; stroke-linejoin: miter; stroke-linecap: square"/>
   </g>
   <g id="text_15">
    <!-- ACC_theta -->
    <g transform="translate(354.630625 19.44)scale(0.12 -0.12)">
     <defs>
      <path id="DejaVuSans-43" d="M 4122 4306 
L 4122 3641 
Q 3803 3938 3442 4084 
Q 3081 4231 2675 4231 
Q 1875 4231 1450 3742 
Q 1025 3253 1025 2328 
Q 1025 1406 1450 917 
Q 1875 428 2675 428 
Q 3081 428 3442 575 
Q 3803 722 4122 1019 
L 4122 359 
Q 3791 134 3420 21 
Q 3050 -91 2638 -91 
Q 1578 -91 968 557 
Q 359 1206 359 2328 
Q 359 3453 968 4101 
Q 1578 4750 2638 4750 
Q 3056 4750 3426 4639 
Q 3797 4528 4122 4306 
z
" transform="scale(0.015625)"/>
      <path id="DejaVuSans-5f" d="M 3263 -1063 
L 3263 -1509 
L -63 -1509 
L -63 -1063 
L 3263 -1063 
z
" transform="scale(0.015625)"/>
      <path id="DejaVuSans-68" d="M 3513 2113 
L 3513 0 
L 2938 0 
L 2938 2094 
Q 2938 2591 2744 2837 
Q 2550 3084 2163 3084 
Q 1697 3084 1428 2787 
Q 1159 2491 1159 1978 
L 1159 0 
L 581 0 
L 581 4863 
L 1159 4863 
L 1159 2956 
Q 1366 3272 1645 3428 
Q 1925 3584 2291 3584 
Q 2894 3584 3203 3211 
Q 3513 2838 3513 2113 
z
" transform="scale(0.015625)"/>
      <path id="DejaVuSans-61" d="M 2194 1759 
Q 1497 1759 1228 1600 
Q 959 1441 959 1056 
Q 959 750 1161 570 
Q 1363 391 1709 391 
Q 2188 391 2477 730 
Q 2766 1069 2766 1631 
L 2766 1759 
L 2194 1759 
z
M 3341 1997 
L 3341 0 
L 2766 0 
L 2766 531 
Q 2569 213 2275 61 
Q 1981 -91 1556 -91 
Q 1019 -91 701 211 
Q 384 513 384 1019 
Q 384 1609 779 1909 
Q 1175 2209 1959 2209 
L 2766 2209 
L 2766 2266 
Q 2766 2663 2505 2880 
Q 2244 3097 1772 3097 
Q 1472 3097 1187 3025 
Q 903 2953 641 2809 
L 641 3341 
Q 956 3463 1253 3523 
Q 1550 3584 1831 3584 
Q 2591 3584 2966 3190 
Q 3341 2797 3341 1997 
z
" transform="scale(0.015625)"/>
     </defs>
     <use xlink:href="#DejaVuSans-41"/>
     <use xlink:href="#DejaVuSans-43" x="66.658203"/>
     <use xlink:href="#DejaVuSans-43" x="136.482422"/>
     <use xlink:href="#DejaVuSans-5f" x="206.306641"/>
     <use xlink:href="#DejaVuSans-74" x="256.306641"/>
     <use xlink:href="#DejaVuSans-68" x="295.515625"/>
     <use xlink:href="#DejaVuSans-65" x="358.894531"/>
     <use xlink:href="#DejaVuSans-74" x="420.417969"/>
     <use xlink:href="#DejaVuSans-61" x="459.626953"/>
    </g>
   </g>
  </g>
  <g id="axes_2">
   <g id="patch_7">
    <path d="M 62.57 396.26 
L 709.2 396.26 
L 709.2 301 
L 62.57 301 
z
" style="fill: #ffffff"/>
   </g>
   <g id="matplotlib.axis_3">
    <g id="xtick_10">
     <g id="line2d_15">
      <g>
       <use xlink:href="#m233e0e9a74" x="91.962273" y="396.26" style="stroke: #000000; stroke-width: 0.8"/>
      </g>
     </g>
     <g id="text_16">
      <!-- 20.00 -->
      <g transform="translate(77.64821 410.858438)scale(0.1 -0.1)">
       <use xlink:href="#DejaVuSans-32"/>
       <use xlink:href="#DejaVuSans-30" x="63.623047"/>
       <use xlink:href="#DejaVuSans-2e" x="127.246094"/>
       <use xlink:href="#DejaVuSans-30" x="159.033203"/>
       <use xlink:href="#DejaVuSans-30" x="222.65625"/>
      </g>
     </g>
    </g>
    <g id="xtick_11">
     <g id="line2d_16">
      <g>
       <use xlink:href="#m233e0e9a74" x="165.479713" y="396.26" style="stroke: #000000; stroke-width: 0.8"/>
      </g>
     </g>
     <g id="text_17">
      <!-- 20.25 -->
      <g transform="translate(151.165651 410.858438)scale(0.1 -0.1)">
       <use xlink:href="#DejaVuSans-32"/>
       <use xlink:href="#DejaVuSans-30" x="63.623047"/>
       <use xlink:href="#DejaVuSans-2e" x="127.246094"/>
       <use xlink:href="#DejaVuSans-32" x="159.033203"/>
       <use xlink:href="#DejaVuSans-35" x="222.65625"/>
      </g>
     </g>
    </g>
    <g id="xtick_12">
     <g id="line2d_17">
      <g>
       <use xlink:href="#m233e0e9a74" x="238.997154" y="396.26" style="stroke: #000000; stroke-width: 0.8"/>
      </g>
     </g>
     <g id="text_18">
      <!-- 20.50 -->
      <g transform="translate(224.683091 410.858438)scale(0.1 -0.1)">
       <use xlink:href="#DejaVuSans-32"/>
       <use xlink:href="#DejaVuSans-30" x="63.623047"/>
       <use xlink:href="#DejaVuSans-2e" x="127.246094"/>
       <use xlink:href="#DejaVuSans-35" x="159.033203"/>
       <use xlink:href="#DejaVuSans-30" x="222.65625"/>
      </g>
     </g>
    </g>
    <g id="xtick_13">
     <g id="line2d_18">
      <g>
       <use xlink:href="#m233e0e9a74" x="312.514594" y="396.26" style="stroke: #000000; stroke-width: 0.8"/>
      </g>
     </g>
     <g id="text_19">
      <!-- 20.75 -->
      <g transform="translate(298.200532 410.858438)scale(0.1 -0.1)">
       <use xlink:href="#DejaVuSans-32"/>
       <use xlink:href="#DejaVuSans-30" x="63.623047"/>
       <use xlink:href="#DejaVuSans-2e" x="127.246094"/>
       <use xlink:href="#DejaVuSans-37" x="159.033203"/>
       <use xlink:href="#DejaVuSans-35" x="222.65625"/>
      </g>
     </g>
    </g>
    <g id="xtick_14">
     <g id="line2d_19">
      <g>
       <use xlink:href="#m233e0e9a74" x="386.032035" y="396.26" style="stroke: #000000; stroke-width: 0.8"/>
      </g>
     </g>
     <g id="text_20">
      <!-- 21.00 -->
      <g transform="translate(371.717972 410.858438)scale(0.1 -0.1)">
       <use xlink:href="#DejaVuSans-32"/>
       <use xlink:href="#DejaVuSans-31" x="63.623047"/>
       <use xlink:href="#DejaVuSans-2e" x="127.246094"/>
       <use xlink:href="#DejaVuSans-30" x="159.033203"/>
       <use xlink:href="#DejaVuSans-30" x="222.65625"/>
      </g>
     </g>
    </g>
    <g id="xtick_15">
     <g id="line2d_20">
      <g>
       <use xlink:href="#m233e0e9a74" x="459.549475" y="396.26" style="stroke: #000000; stroke-width: 0.8"/>
      </g>
     </g>
     <g id="text_21">
      <!-- 21.25 -->
      <g transform="translate(445.235413 410.858438)scale(0.1 -0.1)">
       <use xlink:href="#DejaVuSans-32"/>
       <use xlink:href="#DejaVuSans-31" x="63.623047"/>
       <use xlink:href="#DejaVuSans-2e" x="127.246094"/>
       <use xlink:href="#DejaVuSans-32" x="159.033203"/>
       <use xlink:href="#DejaVuSans-35" x="222.65625"/>
      </g>
     </g>
    </g>
    <g id="xtick_16">
     <g id="line2d_21">
      <g>
       <use xlink:href="#m233e0e9a74" x="533.066916" y="396.26" style="stroke: #000000; stroke-width: 0.8"/>
      </g>
     </g>
     <g id="text_22">
      <!-- 21.50 -->
      <g transform="translate(518.752853 410.858438)scale(0.1 -0.1)">
       <use xlink:href="#DejaVuSans-32"/>
       <use xlink:href="#DejaVuSans-31" x="63.623047"/>
       <use xlink:href="#DejaVuSans-2e" x="127.246094"/>
       <use xlink:href="#DejaVuSans-35" x="159.033203"/>
       <use xlink:href="#DejaVuSans-30" x="222.65625"/>
      </g>
     </g>
    </g>
    <g id="xtick_17">
     <g id="line2d_22">
      <g>
       <use xlink:href="#m233e0e9a74" x="606.584356" y="396.26" style="stroke: #000000; stroke-width: 0.8"/>
      </g>
     </g>
     <g id="text_23">
      <!-- 21.75 -->
      <g transform="translate(592.270294 410.858438)scale(0.1 -0.1)">
       <use xlink:href="#DejaVuSans-32"/>
       <use xlink:href="#DejaVuSans-31" x="63.623047"/>
       <use xlink:href="#DejaVuSans-2e" x="127.246094"/>
       <use xlink:href="#DejaVuSans-37" x="159.033203"/>
       <use xlink:href="#DejaVuSans-35" x="222.65625"/>
      </g>
     </g>
    </g>
    <g id="xtick_18">
     <g id="line2d_23">
      <g>
       <use xlink:href="#m233e0e9a74" x="680.101797" y="396.26" style="stroke: #000000; stroke-width: 0.8"/>
      </g>
     </g>
     <g id="text_24">
      <!-- 22.00 -->
      <g transform="translate(665.787735 410.858438)scale(0.1 -0.1)">
       <use xlink:href="#DejaVuSans-32"/>
       <use xlink:href="#DejaVuSans-32" x="63.623047"/>
       <use xlink:href="#DejaVuSans-2e" x="127.246094"/>
       <use xlink:href="#DejaVuSans-30" x="159.033203"/>
       <use xlink:href="#DejaVuSans-30" x="222.65625"/>
      </g>
     </g>
    </g>
   </g>
   <g id="matplotlib.axis_4">
    <g id="ytick_5">
     <g id="line2d_24">
      <g>
       <use xlink:href="#mb657aa6f5e" x="62.57" y="385.119276" style="stroke: #000000; stroke-width: 0.8"/>
      </g>
     </g>
     <g id="text_25">
      <!-- −0.2 -->
      <g transform="translate(31.287188 388.918495)scale(0.1 -0.1)">
       <use xlink:href="#DejaVuSans-2212"/>
       <use xlink:href="#DejaVuSans-30" x="83.789062"/>
       <use xlink:href="#DejaVuSans-2e" x="147.412109"/>
       <use xlink:href="#DejaVuSans-32" x="179.199219"/>
      </g>
     </g>
    </g>
    <g id="ytick_6">
     <g id="line2d_25">
      <g>
       <use xlink:href="#mb657aa6f5e" x="62.57" y="352.984683" style="stroke: #000000; stroke-width: 0.8"/>
      </g>
     </g>
     <g id="text_26">
      <!-- 0.0 -->
      <g transform="translate(39.666875 356.783902)scale(0.1 -0.1)">
       <use xlink:href="#DejaVuSans-30"/>
       <use xlink:href="#DejaVuSans-2e" x="63.623047"/>
       <use xlink:href="#DejaVuSans-30" x="95.410156"/>
      </g>
     </g>
    </g>
    <g id="ytick_7">
     <g id="line2d_26">
      <g>
       <use xlink:href="#mb657aa6f5e" x="62.57" y="320.85009" style="stroke: #000000; stroke-width: 0.8"/>
      </g>
     </g>
     <g id="text_27">
      <!-- 0.2 -->
      <g transform="translate(39.666875 324.649309)scale(0.1 -0.1)">
       <use xlink:href="#DejaVuSans-30"/>
       <use xlink:href="#DejaVuSans-2e" x="63.623047"/>
       <use xlink:href="#DejaVuSans-32" x="95.410156"/>
      </g>
     </g>
    </g>
    <g id="text_28">
     <!-- Amplitude -->
     <g transform="translate(25.2075 374.252656)rotate(-90)scale(0.1 -0.1)">
      <use xlink:href="#DejaVuSans-41"/>
      <use xlink:href="#DejaVuSans-6d" x="68.408203"/>
      <use xlink:href="#DejaVuSans-70" x="165.820312"/>
      <use xlink:href="#DejaVuSans-6c" x="229.296875"/>
      <use xlink:href="#DejaVuSans-69" x="257.080078"/>
      <use xlink:href="#DejaVuSans-74" x="284.863281"/>
      <use xlink:href="#DejaVuSans-75" x="324.072266"/>
      <use xlink:href="#DejaVuSans-64" x="387.451172"/>
      <use xlink:href="#DejaVuSans-65" x="450.927734"/>
     </g>
    </g>
   </g>
   <g id="line2d_27">
    <path d="M 91.962273 352.37859 
L 93.432622 353.68564 
L 94.608901 354.449607 
L 95.49111 354.802125 
L 96.373319 354.933799 
L 97.255528 354.824175 
L 98.137738 354.461582 
L 99.019947 353.843907 
L 99.902156 352.979021 
L 101.078435 351.473675 
L 102.548784 349.128323 
L 104.901342 344.788742 
L 106.959831 341.125286 
L 108.13611 339.404902 
L 109.018319 338.402074 
L 109.900528 337.706787 
L 110.782738 337.367518 
L 111.370877 337.359604 
L 111.959017 337.538078 
L 112.547156 337.91084 
L 113.135296 338.483681 
L 114.017505 339.72527 
L 114.899714 341.426736 
L 115.781923 343.578125 
L 116.958203 347.106235 
L 118.428551 352.448284 
L 120.19297 359.887022 
L 125.192156 381.748477 
L 126.368435 385.781668 
L 127.250644 388.243078 
L 128.132853 390.131199 
L 128.720993 391.035859 
L 129.309133 391.635597 
L 129.897272 391.914754 
L 130.485412 391.860545 
L 131.073551 391.463306 
L 131.661691 390.716715 
L 132.24983 389.617986 
L 133.132039 387.312655 
L 134.014249 384.237171 
L 134.896458 380.4305 
L 136.072737 374.321648 
L 137.543086 365.303459 
L 139.601574 351.0039 
L 142.836342 328.335104 
L 144.30669 319.548523 
L 145.482969 313.773964 
L 146.365179 310.33633 
L 147.247388 307.753735 
L 147.835528 306.536175 
L 148.423667 305.735721 
L 149.011807 305.358864 
L 149.599946 305.407293 
L 150.188086 305.877904 
L 150.776225 306.762863 
L 151.364365 308.049739 
L 152.246574 310.695679 
L 153.128783 314.133061 
L 154.305062 319.784972 
L 155.775411 328.192497 
L 158.127969 343.34666 
L 160.774597 360.125855 
L 162.244946 368.163013 
L 163.421225 373.542051 
L 164.597504 377.811981 
L 165.479713 380.224043 
L 166.361923 381.93443 
L 166.950062 382.683385 
L 167.538202 383.123488 
L 168.126341 383.262164 
L 168.714481 383.110034 
L 169.30262 382.680677 
L 169.89076 381.990367 
L 170.772969 380.507041 
L 171.655178 378.550525 
L 172.831457 375.343848 
L 174.301806 370.659805 
L 179.300992 354.128012 
L 180.771341 350.345544 
L 181.94762 347.932187 
L 182.829829 346.508929 
L 183.712039 345.423585 
L 184.594248 344.671543 
L 185.476457 344.239754 
L 186.358666 344.107987 
L 187.240876 344.25021 
L 188.123085 344.636006 
L 189.299364 345.471315 
L 190.475643 346.596948 
L 192.240062 348.648211 
L 197.827387 355.475735 
L 199.297736 356.857579 
L 200.768085 357.930281 
L 201.944364 358.534116 
L 203.120643 358.89034 
L 204.296922 358.982679 
L 205.473201 358.798596 
L 206.64948 358.330294 
L 207.825759 357.576298 
L 209.002038 356.543352 
L 210.472387 354.886722 
L 211.942736 352.880511 
L 214.001224 349.661403 
L 217.824131 343.56114 
L 219.29448 341.634338 
L 220.470759 340.418555 
L 221.647038 339.55958 
L 222.529247 339.177954 
L 223.411456 339.036325 
L 224.293666 339.141499 
L 225.175875 339.493982 
L 226.058084 340.088041 
L 226.940294 340.911987 
L 228.116573 342.337795 
L 229.586921 344.568008 
L 231.35134 347.726301 
L 237.526805 359.297954 
L 238.997154 361.410858 
L 240.173433 362.776427 
L 241.349712 363.823084 
L 242.525991 364.536907 
L 243.4082 364.852997 
L 244.29041 364.985824 
L 245.172619 364.943886 
L 246.348898 364.637609 
L 247.525177 364.080425 
L 248.995526 363.102382 
L 251.054014 361.39587 
L 254.876921 358.121105 
L 256.64134 356.924841 
L 258.111688 356.178011 
L 259.582037 355.668918 
L 261.346456 355.333012 
L 263.699014 355.174348 
L 266.345642 354.98066 
L 267.81599 354.678375 
L 269.286339 354.141925 
L 270.756688 353.323976 
L 272.227037 352.205169 
L 273.697386 350.793918 
L 275.461804 348.762326 
L 277.814362 345.641098 
L 282.813548 338.853736 
L 284.283897 337.252112 
L 285.460176 336.242129 
L 286.636455 335.54092 
L 287.518665 335.254672 
L 288.400874 335.201166 
L 289.283083 335.402635 
L 290.165292 335.878086 
L 291.047502 336.642265 
L 291.929711 337.704617 
L 292.81192 339.068314 
L 293.988199 341.347387 
L 295.164478 344.123072 
L 296.634827 348.200906 
L 298.693316 354.723854 
L 302.516222 367.153043 
L 303.986571 371.155414 
L 305.16285 373.742579 
L 306.04506 375.245211 
L 306.927269 376.329065 
L 307.515408 376.805231 
L 308.103548 377.078318 
L 308.691687 377.14624 
L 309.279827 377.009696 
L 309.867966 376.67221 
L 310.750176 375.803849 
L 311.632385 374.531207 
L 312.808664 372.286439 
L 314.279013 368.80138 
L 316.925641 361.645748 
L 318.984129 356.398057 
L 320.160408 353.884015 
L 321.336687 351.857556 
L 322.218896 350.692106 
L 323.101106 349.836554 
L 323.983315 349.278928 
L 324.865524 348.991909 
L 325.747734 348.934414 
L 326.924013 349.122671 
L 330.74692 350.069045 
L 331.629129 349.983494 
L 332.511338 349.67628 
L 333.393547 349.117984 
L 334.275757 348.294484 
L 335.157966 347.207913 
L 336.334245 345.384228 
L 337.804594 342.631961 
L 341.921571 334.522109 
L 343.09785 332.863623 
L 343.980059 332.007305 
L 344.568198 331.652654 
L 345.156338 331.486764 
L 345.744477 331.519999 
L 346.332617 331.759683 
L 346.920757 332.209955 
L 347.802966 333.281232 
L 348.685175 334.816649 
L 349.567384 336.789158 
L 350.743663 340.024252 
L 352.214012 344.842623 
L 354.56657 353.527063 
L 356.919128 362.038819 
L 358.389477 366.609286 
L 359.565756 369.610009 
L 360.447966 371.407094 
L 361.330175 372.782447 
L 362.212384 373.72078 
L 362.800524 374.102032 
L 363.388663 374.290514 
L 363.976803 374.291249 
L 364.564942 374.111537 
L 365.447152 373.524695 
L 366.329361 372.592844 
L 367.50564 370.896152 
L 368.975989 368.226227 
L 371.328547 363.314739 
L 373.681105 358.511465 
L 375.151454 355.923263 
L 376.621802 353.797045 
L 377.798082 352.459253 
L 378.974361 351.437213 
L 380.15064 350.70015 
L 381.326919 350.199781 
L 382.797267 349.815775 
L 385.443895 349.426084 
L 387.796453 348.990847 
L 389.560872 348.455043 
L 391.61936 347.593483 
L 397.794825 344.764652 
L 399.559244 344.291885 
L 401.323663 344.063344 
L 403.088081 344.077402 
L 404.8525 344.316673 
L 406.616918 344.767052 
L 408.381337 345.434433 
L 410.145755 346.35427 
L 411.616104 347.359379 
L 413.086453 348.631167 
L 414.556802 350.21664 
L 416.027151 352.152042 
L 417.497499 354.451201 
L 419.261918 357.659966 
L 421.614476 362.494666 
L 424.849243 369.200833 
L 426.319592 371.770115 
L 427.495871 373.396954 
L 428.378081 374.294392 
L 429.26029 374.868275 
L 429.848429 375.052953 
L 430.436569 375.068607 
L 431.024708 374.907884 
L 431.612848 374.565229 
L 432.495057 373.702789 
L 433.377267 372.419971 
L 434.259476 370.724412 
L 435.435755 367.855942 
L 436.612034 364.364124 
L 438.082383 359.290363 
L 440.434941 350.199493 
L 443.375639 338.985654 
L 444.845987 334.214747 
L 446.022266 331.067068 
L 446.904476 329.172879 
L 447.786685 327.71897 
L 448.668894 326.72951 
L 449.257034 326.334559 
L 449.845173 326.152645 
L 450.433313 326.182316 
L 451.021452 326.419918 
L 451.609592 326.859704 
L 452.491801 327.881099 
L 453.37401 329.306091 
L 454.550289 331.761413 
L 455.726569 334.744897 
L 457.490987 339.927312 
L 463.372382 358.014579 
L 464.842731 361.617751 
L 466.01901 364.030101 
L 467.195289 365.98424 
L 468.371568 367.46233 
L 469.253778 368.25729 
L 470.135987 368.788834 
L 471.018196 369.06657 
L 471.900405 369.104004 
L 472.782615 368.918062 
L 473.664824 368.528592 
L 474.841103 367.731454 
L 476.017382 366.669994 
L 477.781801 364.716902 
L 481.016568 360.642384 
L 483.369126 357.824512 
L 485.133545 356.020826 
L 486.603894 354.78668 
L 488.074242 353.814336 
L 489.544591 353.093235 
L 491.30901 352.511724 
L 493.367498 352.109174 
L 498.954824 351.207858 
L 501.013312 350.549081 
L 503.0718 349.620397 
L 505.424358 348.264959 
L 512.776102 343.69014 
L 514.246451 343.145422 
L 515.42273 342.905649 
L 516.599009 342.874204 
L 517.775288 343.077444 
L 518.951567 343.534278 
L 520.127846 344.253622 
L 521.304125 345.232136 
L 522.774474 346.792086 
L 524.538893 349.06674 
L 527.77366 353.777137 
L 529.832149 356.588046 
L 531.302497 358.256636 
L 532.478776 359.30565 
L 533.655055 360.062966 
L 534.831335 360.515256 
L 536.007614 360.670896 
L 537.183893 360.559614 
L 538.360172 360.230314 
L 540.12459 359.470974 
L 543.065288 358.130233 
L 544.535637 357.719828 
L 545.711916 357.611874 
L 546.888195 357.727879 
L 548.064474 358.068533 
L 549.534823 358.771415 
L 551.593311 360.083967 
L 553.945869 361.556908 
L 555.122148 362.063283 
L 556.298427 362.295999 
L 557.180636 362.244645 
L 558.062846 361.971233 
L 558.945055 361.458186 
L 559.827264 360.696408 
L 560.709474 359.685943 
L 561.885753 357.969533 
L 563.356101 355.303355 
L 565.12052 351.549079 
L 569.237497 342.487958 
L 570.707846 339.906612 
L 571.884125 338.32202 
L 572.766334 337.463808 
L 573.648543 336.912341 
L 574.530752 336.678646 
L 575.412962 336.763949 
L 576.295171 337.15979 
L 577.17738 337.848535 
L 578.05959 338.804232 
L 579.235869 340.435714 
L 580.706217 342.915253 
L 583.352845 347.984587 
L 585.705403 352.341854 
L 587.175752 354.678526 
L 588.646101 356.586283 
L 589.82238 357.764527 
L 590.998659 358.62322 
L 592.174938 359.169578 
L 593.351217 359.423497 
L 594.527496 359.414472 
L 595.703775 359.178704 
L 597.174124 358.626991 
L 598.938543 357.69891 
L 605.114008 354.186993 
L 606.584356 353.710964 
L 608.054705 353.495657 
L 609.230984 353.532711 
L 610.407263 353.762371 
L 611.877612 354.311044 
L 613.347961 355.114953 
L 615.406449 356.537532 
L 618.641217 358.833462 
L 620.111566 359.587965 
L 621.287845 359.937385 
L 622.170054 360.013984 
L 623.052263 359.910741 
L 623.934472 359.614651 
L 624.816682 359.118936 
L 625.992961 358.148561 
L 627.16924 356.844123 
L 628.639589 354.810346 
L 630.404007 351.952521 
L 634.226914 345.606612 
L 635.697263 343.667417 
L 636.873542 342.501017 
L 637.755751 341.894756 
L 638.637961 341.541 
L 639.52017 341.451794 
L 640.402379 341.631258 
L 641.284588 342.07539 
L 642.166798 342.772122 
L 643.343077 344.058742 
L 644.519356 345.691975 
L 646.283774 348.601072 
L 650.400751 355.70601 
L 651.8711 357.71383 
L 653.047379 358.941783 
L 653.929588 359.609626 
L 654.811797 360.048586 
L 655.694007 360.257125 
L 656.576216 360.242057 
L 657.458425 360.018049 
L 658.634704 359.432666 
L 659.810983 358.581914 
L 661.575402 356.983565 
L 665.104239 353.653924 
L 666.574588 352.568968 
L 668.044937 351.784902 
L 669.221216 351.390446 
L 670.397495 351.194083 
L 671.867844 351.189122 
L 673.632262 351.440981 
L 679.807727 352.725111 
L 679.807727 352.725111 
" clip-path="url(#p76fb8a1fc3)" style="fill: none; stroke: #0000ff; stroke-width: 1.5; stroke-linecap: square"/>
   </g>
   <g id="patch_8">
    <path d="M 62.57 396.26 
L 62.57 301 
" style="fill: none; stroke: #000000; stroke-width: 0.8; stroke-linejoin: miter; stroke-linecap: square"/>
   </g>
   <g id="patch_9">
    <path d="M 709.2 396.26 
L 709.2 301 
" style="fill: none; stroke: #000000; stroke-width: 0.8; stroke-linejoin: miter; stroke-linecap: square"/>
   </g>
   <g id="patch_10">
    <path d="M 62.57 396.26 
L 709.2 396.26 
" style="fill: none; stroke: #000000; stroke-width: 0.8; stroke-linejoin: miter; stroke-linecap: square"/>
   </g>
   <g id="patch_11">
    <path d="M 62.57 301 
L 709.2 301 
" style="fill: none; stroke: #000000; stroke-width: 0.8; stroke-linejoin: miter; stroke-linecap: square"/>
   </g>
   <g id="text_29">
    <!-- V2_theta -->
    <g transform="translate(359.0875 295)scale(0.12 -0.12)">
     <defs>
      <path id="DejaVuSans-56" d="M 1831 0 
L 50 4666 
L 709 4666 
L 2188 738 
L 3669 4666 
L 4325 4666 
L 2547 0 
L 1831 0 
z
" transform="scale(0.015625)"/>
     </defs>
     <use xlink:href="#DejaVuSans-56"/>
     <use xlink:href="#DejaVuSans-32" x="68.408203"/>
     <use xlink:href="#DejaVuSans-5f" x="132.03125"/>
     <use xlink:href="#DejaVuSans-74" x="182.03125"/>
     <use xlink:href="#DejaVuSans-68" x="221.240234"/>
     <use xlink:href="#DejaVuSans-65" x="284.619141"/>
     <use xlink:href="#DejaVuSans-74" x="346.142578"/>
     <use xlink:href="#DejaVuSans-61" x="385.351562"/>
    </g>
   </g>
  </g>
  <g id="axes_3">
   <g id="patch_12">
    <path d="M 62.57 258.48 
L 709.2 258.48 
L 709.2 163.22 
L 62.57 163.22 
z
" style="fill: #ffffff"/>
   </g>
   <g id="matplotlib.axis_5">
    <g id="xtick_19">
     <g id="line2d_28">
      <g>
       <use xlink:href="#m233e0e9a74" x="91.962273" y="258.48" style="stroke: #000000; stroke-width: 0.8"/>
      </g>
     </g>
     <g id="text_30">
      <!-- 20.00 -->
      <g transform="translate(77.64821 273.078438)scale(0.1 -0.1)">
       <use xlink:href="#DejaVuSans-32"/>
       <use xlink:href="#DejaVuSans-30" x="63.623047"/>
       <use xlink:href="#DejaVuSans-2e" x="127.246094"/>
       <use xlink:href="#DejaVuSans-30" x="159.033203"/>
       <use xlink:href="#DejaVuSans-30" x="222.65625"/>
      </g>
     </g>
    </g>
    <g id="xtick_20">
     <g id="line2d_29">
      <g>
       <use xlink:href="#m233e0e9a74" x="165.479713" y="258.48" style="stroke: #000000; stroke-width: 0.8"/>
      </g>
     </g>
     <g id="text_31">
      <!-- 20.25 -->
      <g transform="translate(151.165651 273.078438)scale(0.1 -0.1)">
       <use xlink:href="#DejaVuSans-32"/>
       <use xlink:href="#DejaVuSans-30" x="63.623047"/>
       <use xlink:href="#DejaVuSans-2e" x="127.246094"/>
       <use xlink:href="#DejaVuSans-32" x="159.033203"/>
       <use xlink:href="#DejaVuSans-35" x="222.65625"/>
      </g>
     </g>
    </g>
    <g id="xtick_21">
     <g id="line2d_30">
      <g>
       <use xlink:href="#m233e0e9a74" x="238.997154" y="258.48" style="stroke: #000000; stroke-width: 0.8"/>
      </g>
     </g>
     <g id="text_32">
      <!-- 20.50 -->
      <g transform="translate(224.683091 273.078438)scale(0.1 -0.1)">
       <use xlink:href="#DejaVuSans-32"/>
       <use xlink:href="#DejaVuSans-30" x="63.623047"/>
       <use xlink:href="#DejaVuSans-2e" x="127.246094"/>
       <use xlink:href="#DejaVuSans-35" x="159.033203"/>
       <use xlink:href="#DejaVuSans-30" x="222.65625"/>
      </g>
     </g>
    </g>
    <g id="xtick_22">
     <g id="line2d_31">
      <g>
       <use xlink:href="#m233e0e9a74" x="312.514594" y="258.48" style="stroke: #000000; stroke-width: 0.8"/>
      </g>
     </g>
     <g id="text_33">
      <!-- 20.75 -->
      <g transform="translate(298.200532 273.078438)scale(0.1 -0.1)">
       <use xlink:href="#DejaVuSans-32"/>
       <use xlink:href="#DejaVuSans-30" x="63.623047"/>
       <use xlink:href="#DejaVuSans-2e" x="127.246094"/>
       <use xlink:href="#DejaVuSans-37" x="159.033203"/>
       <use xlink:href="#DejaVuSans-35" x="222.65625"/>
      </g>
     </g>
    </g>
    <g id="xtick_23">
     <g id="line2d_32">
      <g>
       <use xlink:href="#m233e0e9a74" x="386.032035" y="258.48" style="stroke: #000000; stroke-width: 0.8"/>
      </g>
     </g>
     <g id="text_34">
      <!-- 21.00 -->
      <g transform="translate(371.717972 273.078438)scale(0.1 -0.1)">
       <use xlink:href="#DejaVuSans-32"/>
       <use xlink:href="#DejaVuSans-31" x="63.623047"/>
       <use xlink:href="#DejaVuSans-2e" x="127.246094"/>
       <use xlink:href="#DejaVuSans-30" x="159.033203"/>
       <use xlink:href="#DejaVuSans-30" x="222.65625"/>
      </g>
     </g>
    </g>
    <g id="xtick_24">
     <g id="line2d_33">
      <g>
       <use xlink:href="#m233e0e9a74" x="459.549475" y="258.48" style="stroke: #000000; stroke-width: 0.8"/>
      </g>
     </g>
     <g id="text_35">
      <!-- 21.25 -->
      <g transform="translate(445.235413 273.078438)scale(0.1 -0.1)">
       <use xlink:href="#DejaVuSans-32"/>
       <use xlink:href="#DejaVuSans-31" x="63.623047"/>
       <use xlink:href="#DejaVuSans-2e" x="127.246094"/>
       <use xlink:href="#DejaVuSans-32" x="159.033203"/>
       <use xlink:href="#DejaVuSans-35" x="222.65625"/>
      </g>
     </g>
    </g>
    <g id="xtick_25">
     <g id="line2d_34">
      <g>
       <use xlink:href="#m233e0e9a74" x="533.066916" y="258.48" style="stroke: #000000; stroke-width: 0.8"/>
      </g>
     </g>
     <g id="text_36">
      <!-- 21.50 -->
      <g transform="translate(518.752853 273.078438)scale(0.1 -0.1)">
       <use xlink:href="#DejaVuSans-32"/>
       <use xlink:href="#DejaVuSans-31" x="63.623047"/>
       <use xlink:href="#DejaVuSans-2e" x="127.246094"/>
       <use xlink:href="#DejaVuSans-35" x="159.033203"/>
       <use xlink:href="#DejaVuSans-30" x="222.65625"/>
      </g>
     </g>
    </g>
    <g id="xtick_26">
     <g id="line2d_35">
      <g>
       <use xlink:href="#m233e0e9a74" x="606.584356" y="258.48" style="stroke: #000000; stroke-width: 0.8"/>
      </g>
     </g>
     <g id="text_37">
      <!-- 21.75 -->
      <g transform="translate(592.270294 273.078438)scale(0.1 -0.1)">
       <use xlink:href="#DejaVuSans-32"/>
       <use xlink:href="#DejaVuSans-31" x="63.623047"/>
       <use xlink:href="#DejaVuSans-2e" x="127.246094"/>
       <use xlink:href="#DejaVuSans-37" x="159.033203"/>
       <use xlink:href="#DejaVuSans-35" x="222.65625"/>
      </g>
     </g>
    </g>
    <g id="xtick_27">
     <g id="line2d_36">
      <g>
       <use xlink:href="#m233e0e9a74" x="680.101797" y="258.48" style="stroke: #000000; stroke-width: 0.8"/>
      </g>
     </g>
     <g id="text_38">
      <!-- 22.00 -->
      <g transform="translate(665.787735 273.078438)scale(0.1 -0.1)">
       <use xlink:href="#DejaVuSans-32"/>
       <use xlink:href="#DejaVuSans-32" x="63.623047"/>
       <use xlink:href="#DejaVuSans-2e" x="127.246094"/>
       <use xlink:href="#DejaVuSans-30" x="159.033203"/>
       <use xlink:href="#DejaVuSans-30" x="222.65625"/>
      </g>
     </g>
    </g>
   </g>
   <g id="matplotlib.axis_6">
    <g id="ytick_8">
     <g id="line2d_37">
      <g>
       <use xlink:href="#mb657aa6f5e" x="62.57" y="238.741452" style="stroke: #000000; stroke-width: 0.8"/>
      </g>
     </g>
     <g id="text_39">
      <!-- −0.1 -->
      <g transform="translate(31.287188 242.540671)scale(0.1 -0.1)">
       <use xlink:href="#DejaVuSans-2212"/>
       <use xlink:href="#DejaVuSans-30" x="83.789062"/>
       <use xlink:href="#DejaVuSans-2e" x="147.412109"/>
       <use xlink:href="#DejaVuSans-31" x="179.199219"/>
      </g>
     </g>
    </g>
    <g id="ytick_9">
     <g id="line2d_38">
      <g>
       <use xlink:href="#mb657aa6f5e" x="62.57" y="212.645324" style="stroke: #000000; stroke-width: 0.8"/>
      </g>
     </g>
     <g id="text_40">
      <!-- 0.0 -->
      <g transform="translate(39.666875 216.444542)scale(0.1 -0.1)">
       <use xlink:href="#DejaVuSans-30"/>
       <use xlink:href="#DejaVuSans-2e" x="63.623047"/>
       <use xlink:href="#DejaVuSans-30" x="95.410156"/>
      </g>
     </g>
    </g>
    <g id="ytick_10">
     <g id="line2d_39">
      <g>
       <use xlink:href="#mb657aa6f5e" x="62.57" y="186.549195" style="stroke: #000000; stroke-width: 0.8"/>
      </g>
     </g>
     <g id="text_41">
      <!-- 0.1 -->
      <g transform="translate(39.666875 190.348414)scale(0.1 -0.1)">
       <use xlink:href="#DejaVuSans-30"/>
       <use xlink:href="#DejaVuSans-2e" x="63.623047"/>
       <use xlink:href="#DejaVuSans-31" x="95.410156"/>
      </g>
     </g>
    </g>
    <g id="text_42">
     <!-- Amplitude -->
     <g transform="translate(25.2075 236.472656)rotate(-90)scale(0.1 -0.1)">
      <use xlink:href="#DejaVuSans-41"/>
      <use xlink:href="#DejaVuSans-6d" x="68.408203"/>
      <use xlink:href="#DejaVuSans-70" x="165.820312"/>
      <use xlink:href="#DejaVuSans-6c" x="229.296875"/>
      <use xlink:href="#DejaVuSans-69" x="257.080078"/>
      <use xlink:href="#DejaVuSans-74" x="284.863281"/>
      <use xlink:href="#DejaVuSans-75" x="324.072266"/>
      <use xlink:href="#DejaVuSans-64" x="387.451172"/>
      <use xlink:href="#DejaVuSans-65" x="450.927734"/>
     </g>
    </g>
   </g>
   <g id="line2d_40">
    <path d="M 91.962273 215.745109 
L 93.726691 215.667253 
L 95.49111 215.374046 
L 97.549598 214.785434 
L 99.608087 213.970548 
L 101.960645 212.793844 
L 104.019133 211.531734 
L 106.077621 209.988433 
L 107.84204 208.37853 
L 109.606458 206.463917 
L 111.664947 203.865452 
L 116.370063 197.674642 
L 117.546342 196.573426 
L 118.428551 196.022097 
L 119.310761 195.77251 
L 119.8989 195.802834 
L 120.48704 196.009882 
L 121.075179 196.408931 
L 121.663319 197.013634 
L 122.545528 198.33105 
L 123.427737 200.165244 
L 124.309947 202.529439 
L 125.486226 206.495367 
L 126.662505 211.326597 
L 128.132853 218.371774 
L 130.779481 232.518066 
L 132.5439 241.545252 
L 133.720179 246.679737 
L 134.602388 249.812573 
L 135.484598 252.176913 
L 136.072737 253.266738 
L 136.660877 253.932421 
L 137.249016 254.15 
L 137.543086 254.084907 
L 138.131225 253.598824 
L 138.719365 252.632387 
L 139.307504 251.184893 
L 140.189714 248.128251 
L 141.071923 244.059625 
L 142.248202 237.221538 
L 143.718551 226.850206 
L 146.071109 207.966606 
L 148.423667 189.631259 
L 149.599946 181.847532 
L 150.776225 175.513803 
L 151.658434 171.892549 
L 152.540644 169.334872 
L 153.128783 168.245861 
L 153.716923 167.657059 
L 154.010993 167.55 
L 154.305062 167.566849 
L 154.893202 167.966813 
L 155.481341 168.842052 
L 156.069481 170.171597 
L 156.95169 172.958284 
L 157.833899 176.596228 
L 159.010178 182.543255 
L 160.480527 191.242999 
L 165.479713 222.070621 
L 166.655992 227.785646 
L 167.832271 232.440424 
L 168.714481 235.164866 
L 169.59669 237.204002 
L 170.184829 238.180072 
L 170.772969 238.853044 
L 171.361109 239.229866 
L 171.949248 239.320635 
L 172.537388 239.1383 
L 173.125527 238.698343 
L 173.713667 238.018444 
L 174.595876 236.591848 
L 175.478085 234.741563 
L 176.654364 231.748678 
L 178.418783 226.514145 
L 182.535759 213.86626 
L 184.006108 210.066537 
L 185.182387 207.501378 
L 186.358666 205.410459 
L 187.534945 203.815475 
L 188.417155 202.945299 
L 189.299364 202.347394 
L 190.181573 202.010023 
L 191.063783 201.917649 
L 191.945992 202.051857 
L 192.828201 202.392212 
L 194.00448 203.129049 
L 195.180759 204.140589 
L 196.651108 205.710148 
L 198.709596 208.295462 
L 204.590992 216.000489 
L 206.35541 217.806764 
L 207.825759 218.959046 
L 209.002038 219.60612 
L 210.178317 219.983169 
L 211.354596 220.074603 
L 212.530875 219.873973 
L 213.707154 219.385101 
L 214.883433 218.622873 
L 216.059712 217.613567 
L 217.530061 216.062503 
L 219.58855 213.527236 
L 223.411456 208.743833 
L 224.881805 207.256252 
L 226.058084 206.322326 
L 227.234363 205.657755 
L 228.410642 205.284881 
L 229.586921 205.208953 
L 230.7632 205.417503 
L 231.93948 205.880987 
L 233.409828 206.749611 
L 235.468317 208.299036 
L 238.703084 210.747108 
L 240.173433 211.592531 
L 241.643782 212.17505 
L 243.11413 212.482585 
L 244.584479 212.549554 
L 246.642968 212.389174 
L 249.289595 212.195696 
L 250.759944 212.323413 
L 251.936223 212.629431 
L 253.112502 213.148714 
L 254.288781 213.890852 
L 255.75913 215.113121 
L 257.523549 216.918124 
L 261.934595 221.653765 
L 263.110874 222.580726 
L 264.287153 223.224853 
L 265.169363 223.489739 
L 266.051572 223.549946 
L 266.933781 223.396935 
L 267.81599 223.029319 
L 268.6982 222.452873 
L 269.874479 221.382161 
L 271.050758 220.01009 
L 272.521107 217.967365 
L 275.167735 213.815656 
L 277.814362 209.776844 
L 279.578781 207.48044 
L 281.04913 205.906328 
L 282.519479 204.661337 
L 283.989827 203.730043 
L 285.460176 203.073248 
L 286.930525 202.639147 
L 288.694944 202.338519 
L 290.753432 202.204717 
L 293.10599 202.288141 
L 294.870409 202.550006 
L 296.340757 202.951109 
L 297.811106 203.570398 
L 299.281455 204.454927 
L 300.751804 205.640119 
L 302.222153 207.141325 
L 303.692501 208.947929 
L 305.45692 211.462202 
L 308.103548 215.682365 
L 311.632385 221.272775 
L 313.396804 223.671191 
L 314.867152 225.335104 
L 316.337501 226.640638 
L 317.51378 227.407179 
L 318.690059 227.919468 
L 319.866338 228.17683 
L 321.042617 228.182125 
L 322.218896 227.939713 
L 323.395176 227.453747 
L 324.571455 226.727029 
L 325.747734 225.760656 
L 327.218082 224.215471 
L 328.688431 222.296154 
L 330.15878 220.009774 
L 331.923199 216.812644 
L 333.981687 212.56089 
L 340.745292 198.017219 
L 342.21564 195.674257 
L 343.391919 194.240367 
L 344.274129 193.461891 
L 345.156338 192.959899 
L 346.038547 192.747991 
L 346.920757 192.833458 
L 347.802966 193.216902 
L 348.685175 193.892094 
L 349.567384 194.846049 
L 350.743663 196.517166 
L 351.919942 198.586538 
L 353.390291 201.614022 
L 355.742849 207.055761 
L 358.977617 214.492102 
L 360.742035 217.962065 
L 362.212384 220.343565 
L 363.388663 221.866382 
L 364.564942 223.035002 
L 365.741221 223.854359 
L 366.9175 224.344502 
L 368.093779 224.537895 
L 369.270058 224.476124 
L 370.446337 224.206276 
L 371.916686 223.650742 
L 374.269244 222.466838 
L 381.620988 218.572079 
L 385.149826 216.684144 
L 387.796453 215.002674 
L 390.443081 213.036553 
L 394.560058 209.629497 
L 399.559244 205.560415 
L 404.8525 201.585699 
L 407.499128 199.814791 
L 409.263546 198.903614 
L 410.439825 198.516109 
L 411.616104 198.380237 
L 412.498313 198.486026 
L 413.380523 198.803166 
L 414.262732 199.359965 
L 415.144941 200.181417 
L 416.027151 201.287492 
L 416.90936 202.691455 
L 418.085639 205.03408 
L 419.261918 207.898962 
L 420.732267 212.13612 
L 422.496685 217.941819 
L 426.613662 231.854232 
L 427.789941 235.116374 
L 428.96622 237.734142 
L 429.848429 239.185183 
L 430.730639 240.141915 
L 431.318778 240.487235 
L 431.906918 240.590357 
L 432.495057 240.447782 
L 433.083197 240.059229 
L 433.671336 239.427644 
L 434.553546 238.038808 
L 435.435755 236.151028 
L 436.612034 232.941687 
L 438.082383 228.027155 
L 440.140871 220.086669 
L 443.669708 206.3082 
L 445.140057 201.406638 
L 446.316336 198.088096 
L 447.492615 195.385705 
L 448.374824 193.787328 
L 449.257034 192.561712 
L 450.139243 191.703943 
L 451.021452 191.201238 
L 451.903662 191.034322 
L 452.785871 191.178861 
L 453.66808 191.606897 
L 454.550289 192.288184 
L 455.726569 193.53634 
L 456.902848 195.104945 
L 458.667266 197.904352 
L 461.019824 202.138136 
L 466.01901 211.29091 
L 468.077499 214.567463 
L 469.841917 216.968944 
L 471.312266 218.637216 
L 472.782615 219.986078 
L 474.252964 221.019206 
L 475.723312 221.758172 
L 477.193661 222.239414 
L 478.95808 222.541602 
L 481.016568 222.618194 
L 483.369126 222.466342 
L 485.721684 222.115975 
L 487.780173 221.604975 
L 489.544591 220.941522 
L 491.01494 220.176186 
L 492.485289 219.181607 
L 493.955638 217.940653 
L 495.720056 216.13707 
L 497.778544 213.685455 
L 502.77773 207.501685 
L 504.248079 206.054995 
L 505.718428 204.944848 
L 506.894707 204.33903 
L 508.070986 204.000923 
L 509.247265 203.930743 
L 510.423544 204.114643 
L 511.599823 204.526161 
L 513.070172 205.304057 
L 514.834591 206.508708 
L 521.010056 210.98989 
L 523.068544 212.066942 
L 525.127032 212.855001 
L 527.185521 213.387517 
L 529.538079 213.742694 
L 531.890637 213.875308 
L 534.243195 213.803802 
L 536.889823 213.488429 
L 540.12459 212.851954 
L 543.653427 212.201752 
L 545.417846 212.092119 
L 546.888195 212.194843 
L 548.358544 212.512894 
L 549.828892 213.061591 
L 551.299241 213.829693 
L 553.35773 215.190279 
L 557.474706 218.057316 
L 558.945055 218.780374 
L 560.121334 219.131704 
L 561.297613 219.239098 
L 562.473892 219.078439 
L 563.650171 218.641998 
L 564.82645 217.939553 
L 566.002729 216.998131 
L 567.473078 215.551534 
L 570.119706 212.541723 
L 572.472264 209.95376 
L 573.942613 208.616223 
L 575.118892 207.780608 
L 576.295171 207.187933 
L 577.47145 206.853183 
L 578.647729 206.774989 
L 579.824008 206.936453 
L 581.000287 207.30704 
L 582.470636 208.000524 
L 584.823194 209.411163 
L 587.763892 211.146302 
L 589.52831 211.923463 
L 590.998659 212.346745 
L 592.469008 212.554149 
L 594.233426 212.543881 
L 596.291915 212.269222 
L 601.291101 211.450304 
L 603.055519 211.450165 
L 604.525868 211.650735 
L 605.996217 212.044407 
L 607.760636 212.750679 
L 610.113194 213.974613 
L 613.936101 216.020827 
L 615.700519 216.692809 
L 617.170868 217.012504 
L 618.641217 217.07324 
L 620.111566 216.86087 
L 621.581914 216.385713 
L 623.052263 215.681686 
L 625.110752 214.417674 
L 630.404007 210.990085 
L 632.168426 210.20077 
L 633.638775 209.773813 
L 635.109123 209.568461 
L 636.579472 209.57397 
L 638.343891 209.818465 
L 640.402379 210.341144 
L 649.518542 212.99118 
L 652.16517 213.398674 
L 655.105867 213.618288 
L 658.046565 213.606885 
L 661.281332 213.363225 
L 670.985634 212.4192 
L 674.808541 212.43288 
L 679.807727 212.592441 
L 679.807727 212.592441 
" clip-path="url(#pa44c5b7159)" style="fill: none; stroke: #0000ff; stroke-width: 1.5; stroke-linecap: square"/>
   </g>
   <g id="patch_13">
    <path d="M 62.57 258.48 
L 62.57 163.22 
" style="fill: none; stroke: #000000; stroke-width: 0.8; stroke-linejoin: miter; stroke-linecap: square"/>
   </g>
   <g id="patch_14">
    <path d="M 709.2 258.48 
L 709.2 163.22 
" style="fill: none; stroke: #000000; stroke-width: 0.8; stroke-linejoin: miter; stroke-linecap: square"/>
   </g>
   <g id="patch_15">
    <path d="M 62.57 258.48 
L 709.2 258.48 
" style="fill: none; stroke: #000000; stroke-width: 0.8; stroke-linejoin: miter; stroke-linecap: square"/>
   </g>
   <g id="patch_16">
    <path d="M 62.57 163.22 
L 709.2 163.22 
" style="fill: none; stroke: #000000; stroke-width: 0.8; stroke-linejoin: miter; stroke-linecap: square"/>
   </g>
   <g id="text_43">
    <!-- S1_theta -->
    <g transform="translate(359.382812 157.22)scale(0.12 -0.12)">
     <defs>
      <path id="DejaVuSans-53" d="M 3425 4513 
L 3425 3897 
Q 3066 4069 2747 4153 
Q 2428 4238 2131 4238 
Q 1616 4238 1336 4038 
Q 1056 3838 1056 3469 
Q 1056 3159 1242 3001 
Q 1428 2844 1947 2747 
L 2328 2669 
Q 3034 2534 3370 2195 
Q 3706 1856 3706 1288 
Q 3706 609 3251 259 
Q 2797 -91 1919 -91 
Q 1588 -91 1214 -16 
Q 841 59 441 206 
L 441 856 
Q 825 641 1194 531 
Q 1563 422 1919 422 
Q 2459 422 2753 634 
Q 3047 847 3047 1241 
Q 3047 1584 2836 1778 
Q 2625 1972 2144 2069 
L 1759 2144 
Q 1053 2284 737 2584 
Q 422 2884 422 3419 
Q 422 4038 858 4394 
Q 1294 4750 2059 4750 
Q 2388 4750 2728 4690 
Q 3069 4631 3425 4513 
z
" transform="scale(0.015625)"/>
     </defs>
     <use xlink:href="#DejaVuSans-53"/>
     <use xlink:href="#DejaVuSans-31" x="63.476562"/>
     <use xlink:href="#DejaVuSans-5f" x="127.099609"/>
     <use xlink:href="#DejaVuSans-74" x="177.099609"/>
     <use xlink:href="#DejaVuSans-68" x="216.308594"/>
     <use xlink:href="#DejaVuSans-65" x="279.6875"/>
     <use xlink:href="#DejaVuSans-74" x="341.210938"/>
     <use xlink:href="#DejaVuSans-61" x="380.419922"/>
    </g>
   </g>
  </g>
  <g id="axes_4">
   <g id="patch_17">
    <path d="M 62.57 534.04 
L 709.2 534.04 
L 709.2 438.78 
L 62.57 438.78 
z
" style="fill: #ffffff"/>
   </g>
   <g id="matplotlib.axis_7">
    <g id="xtick_28">
     <g id="line2d_41">
      <g>
       <use xlink:href="#m233e0e9a74" x="91.962273" y="534.04" style="stroke: #000000; stroke-width: 0.8"/>
      </g>
     </g>
     <g id="text_44">
      <!-- 20.00 -->
      <g transform="translate(77.64821 548.638438)scale(0.1 -0.1)">
       <use xlink:href="#DejaVuSans-32"/>
       <use xlink:href="#DejaVuSans-30" x="63.623047"/>
       <use xlink:href="#DejaVuSans-2e" x="127.246094"/>
       <use xlink:href="#DejaVuSans-30" x="159.033203"/>
       <use xlink:href="#DejaVuSans-30" x="222.65625"/>
      </g>
     </g>
    </g>
    <g id="xtick_29">
     <g id="line2d_42">
      <g>
       <use xlink:href="#m233e0e9a74" x="165.479713" y="534.04" style="stroke: #000000; stroke-width: 0.8"/>
      </g>
     </g>
     <g id="text_45">
      <!-- 20.25 -->
      <g transform="translate(151.165651 548.638438)scale(0.1 -0.1)">
       <use xlink:href="#DejaVuSans-32"/>
       <use xlink:href="#DejaVuSans-30" x="63.623047"/>
       <use xlink:href="#DejaVuSans-2e" x="127.246094"/>
       <use xlink:href="#DejaVuSans-32" x="159.033203"/>
       <use xlink:href="#DejaVuSans-35" x="222.65625"/>
      </g>
     </g>
    </g>
    <g id="xtick_30">
     <g id="line2d_43">
      <g>
       <use xlink:href="#m233e0e9a74" x="238.997154" y="534.04" style="stroke: #000000; stroke-width: 0.8"/>
      </g>
     </g>
     <g id="text_46">
      <!-- 20.50 -->
      <g transform="translate(224.683091 548.638438)scale(0.1 -0.1)">
       <use xlink:href="#DejaVuSans-32"/>
       <use xlink:href="#DejaVuSans-30" x="63.623047"/>
       <use xlink:href="#DejaVuSans-2e" x="127.246094"/>
       <use xlink:href="#DejaVuSans-35" x="159.033203"/>
       <use xlink:href="#DejaVuSans-30" x="222.65625"/>
      </g>
     </g>
    </g>
    <g id="xtick_31">
     <g id="line2d_44">
      <g>
       <use xlink:href="#m233e0e9a74" x="312.514594" y="534.04" style="stroke: #000000; stroke-width: 0.8"/>
      </g>
     </g>
     <g id="text_47">
      <!-- 20.75 -->
      <g transform="translate(298.200532 548.638438)scale(0.1 -0.1)">
       <use xlink:href="#DejaVuSans-32"/>
       <use xlink:href="#DejaVuSans-30" x="63.623047"/>
       <use xlink:href="#DejaVuSans-2e" x="127.246094"/>
       <use xlink:href="#DejaVuSans-37" x="159.033203"/>
       <use xlink:href="#DejaVuSans-35" x="222.65625"/>
      </g>
     </g>
    </g>
    <g id="xtick_32">
     <g id="line2d_45">
      <g>
       <use xlink:href="#m233e0e9a74" x="386.032035" y="534.04" style="stroke: #000000; stroke-width: 0.8"/>
      </g>
     </g>
     <g id="text_48">
      <!-- 21.00 -->
      <g transform="translate(371.717972 548.638438)scale(0.1 -0.1)">
       <use xlink:href="#DejaVuSans-32"/>
       <use xlink:href="#DejaVuSans-31" x="63.623047"/>
       <use xlink:href="#DejaVuSans-2e" x="127.246094"/>
       <use xlink:href="#DejaVuSans-30" x="159.033203"/>
       <use xlink:href="#DejaVuSans-30" x="222.65625"/>
      </g>
     </g>
    </g>
    <g id="xtick_33">
     <g id="line2d_46">
      <g>
       <use xlink:href="#m233e0e9a74" x="459.549475" y="534.04" style="stroke: #000000; stroke-width: 0.8"/>
      </g>
     </g>
     <g id="text_49">
      <!-- 21.25 -->
      <g transform="translate(445.235413 548.638438)scale(0.1 -0.1)">
       <use xlink:href="#DejaVuSans-32"/>
       <use xlink:href="#DejaVuSans-31" x="63.623047"/>
       <use xlink:href="#DejaVuSans-2e" x="127.246094"/>
       <use xlink:href="#DejaVuSans-32" x="159.033203"/>
       <use xlink:href="#DejaVuSans-35" x="222.65625"/>
      </g>
     </g>
    </g>
    <g id="xtick_34">
     <g id="line2d_47">
      <g>
       <use xlink:href="#m233e0e9a74" x="533.066916" y="534.04" style="stroke: #000000; stroke-width: 0.8"/>
      </g>
     </g>
     <g id="text_50">
      <!-- 21.50 -->
      <g transform="translate(518.752853 548.638438)scale(0.1 -0.1)">
       <use xlink:href="#DejaVuSans-32"/>
       <use xlink:href="#DejaVuSans-31" x="63.623047"/>
       <use xlink:href="#DejaVuSans-2e" x="127.246094"/>
       <use xlink:href="#DejaVuSans-35" x="159.033203"/>
       <use xlink:href="#DejaVuSans-30" x="222.65625"/>
      </g>
     </g>
    </g>
    <g id="xtick_35">
     <g id="line2d_48">
      <g>
       <use xlink:href="#m233e0e9a74" x="606.584356" y="534.04" style="stroke: #000000; stroke-width: 0.8"/>
      </g>
     </g>
     <g id="text_51">
      <!-- 21.75 -->
      <g transform="translate(592.270294 548.638438)scale(0.1 -0.1)">
       <use xlink:href="#DejaVuSans-32"/>
       <use xlink:href="#DejaVuSans-31" x="63.623047"/>
       <use xlink:href="#DejaVuSans-2e" x="127.246094"/>
       <use xlink:href="#DejaVuSans-37" x="159.033203"/>
       <use xlink:href="#DejaVuSans-35" x="222.65625"/>
      </g>
     </g>
    </g>
    <g id="xtick_36">
     <g id="line2d_49">
      <g>
       <use xlink:href="#m233e0e9a74" x="680.101797" y="534.04" style="stroke: #000000; stroke-width: 0.8"/>
      </g>
     </g>
     <g id="text_52">
      <!-- 22.00 -->
      <g transform="translate(665.787735 548.638438)scale(0.1 -0.1)">
       <use xlink:href="#DejaVuSans-32"/>
       <use xlink:href="#DejaVuSans-32" x="63.623047"/>
       <use xlink:href="#DejaVuSans-2e" x="127.246094"/>
       <use xlink:href="#DejaVuSans-30" x="159.033203"/>
       <use xlink:href="#DejaVuSans-30" x="222.65625"/>
      </g>
     </g>
    </g>
    <g id="text_53">
     <!-- Time(s) -->
     <g transform="translate(367.145156 562.316563)scale(0.1 -0.1)">
      <defs>
       <path id="DejaVuSans-54" d="M -19 4666 
L 3928 4666 
L 3928 4134 
L 2272 4134 
L 2272 0 
L 1638 0 
L 1638 4134 
L -19 4134 
L -19 4666 
z
" transform="scale(0.015625)"/>
       <path id="DejaVuSans-28" d="M 1984 4856 
Q 1566 4138 1362 3434 
Q 1159 2731 1159 2009 
Q 1159 1288 1364 580 
Q 1569 -128 1984 -844 
L 1484 -844 
Q 1016 -109 783 600 
Q 550 1309 550 2009 
Q 550 2706 781 3412 
Q 1013 4119 1484 4856 
L 1984 4856 
z
" transform="scale(0.015625)"/>
       <path id="DejaVuSans-73" d="M 2834 3397 
L 2834 2853 
Q 2591 2978 2328 3040 
Q 2066 3103 1784 3103 
Q 1356 3103 1142 2972 
Q 928 2841 928 2578 
Q 928 2378 1081 2264 
Q 1234 2150 1697 2047 
L 1894 2003 
Q 2506 1872 2764 1633 
Q 3022 1394 3022 966 
Q 3022 478 2636 193 
Q 2250 -91 1575 -91 
Q 1294 -91 989 -36 
Q 684 19 347 128 
L 347 722 
Q 666 556 975 473 
Q 1284 391 1588 391 
Q 1994 391 2212 530 
Q 2431 669 2431 922 
Q 2431 1156 2273 1281 
Q 2116 1406 1581 1522 
L 1381 1569 
Q 847 1681 609 1914 
Q 372 2147 372 2553 
Q 372 3047 722 3315 
Q 1072 3584 1716 3584 
Q 2034 3584 2315 3537 
Q 2597 3491 2834 3397 
z
" transform="scale(0.015625)"/>
       <path id="DejaVuSans-29" d="M 513 4856 
L 1013 4856 
Q 1481 4119 1714 3412 
Q 1947 2706 1947 2009 
Q 1947 1309 1714 600 
Q 1481 -109 1013 -844 
L 513 -844 
Q 928 -128 1133 580 
Q 1338 1288 1338 2009 
Q 1338 2731 1133 3434 
Q 928 4138 513 4856 
z
" transform="scale(0.015625)"/>
      </defs>
      <use xlink:href="#DejaVuSans-54"/>
      <use xlink:href="#DejaVuSans-69" x="57.958984"/>
      <use xlink:href="#DejaVuSans-6d" x="85.742188"/>
      <use xlink:href="#DejaVuSans-65" x="183.154297"/>
      <use xlink:href="#DejaVuSans-28" x="244.677734"/>
      <use xlink:href="#DejaVuSans-73" x="283.691406"/>
      <use xlink:href="#DejaVuSans-29" x="335.791016"/>
     </g>
    </g>
   </g>
   <g id="matplotlib.axis_8">
    <g id="ytick_11">
     <g id="line2d_50">
      <g>
       <use xlink:href="#mb657aa6f5e" x="62.57" y="515.9562" style="stroke: #000000; stroke-width: 0.8"/>
      </g>
     </g>
     <g id="text_54">
      <!-- −0.1 -->
      <g transform="translate(31.287188 519.755418)scale(0.1 -0.1)">
       <use xlink:href="#DejaVuSans-2212"/>
       <use xlink:href="#DejaVuSans-30" x="83.789062"/>
       <use xlink:href="#DejaVuSans-2e" x="147.412109"/>
       <use xlink:href="#DejaVuSans-31" x="179.199219"/>
      </g>
     </g>
    </g>
    <g id="ytick_12">
     <g id="line2d_51">
      <g>
       <use xlink:href="#mb657aa6f5e" x="62.57" y="482.827161" style="stroke: #000000; stroke-width: 0.8"/>
      </g>
     </g>
     <g id="text_55">
      <!-- 0.0 -->
      <g transform="translate(39.666875 486.62638)scale(0.1 -0.1)">
       <use xlink:href="#DejaVuSans-30"/>
       <use xlink:href="#DejaVuSans-2e" x="63.623047"/>
       <use xlink:href="#DejaVuSans-30" x="95.410156"/>
      </g>
     </g>
    </g>
    <g id="ytick_13">
     <g id="line2d_52">
      <g>
       <use xlink:href="#mb657aa6f5e" x="62.57" y="449.698122" style="stroke: #000000; stroke-width: 0.8"/>
      </g>
     </g>
     <g id="text_56">
      <!-- 0.1 -->
      <g transform="translate(39.666875 453.497341)scale(0.1 -0.1)">
       <use xlink:href="#DejaVuSans-30"/>
       <use xlink:href="#DejaVuSans-2e" x="63.623047"/>
       <use xlink:href="#DejaVuSans-31" x="95.410156"/>
      </g>
     </g>
    </g>
    <g id="text_57">
     <!-- Amplitude -->
     <g transform="translate(25.2075 512.032656)rotate(-90)scale(0.1 -0.1)">
      <use xlink:href="#DejaVuSans-41"/>
      <use xlink:href="#DejaVuSans-6d" x="68.408203"/>
      <use xlink:href="#DejaVuSans-70" x="165.820312"/>
      <use xlink:href="#DejaVuSans-6c" x="229.296875"/>
      <use xlink:href="#DejaVuSans-69" x="257.080078"/>
      <use xlink:href="#DejaVuSans-74" x="284.863281"/>
      <use xlink:href="#DejaVuSans-75" x="324.072266"/>
      <use xlink:href="#DejaVuSans-64" x="387.451172"/>
      <use xlink:href="#DejaVuSans-65" x="450.927734"/>
     </g>
    </g>
   </g>
   <g id="line2d_53">
    <path d="M 91.962273 481.06381 
L 94.020761 481.697575 
L 95.49111 481.93513 
L 96.667389 481.942004 
L 97.843668 481.750893 
L 99.019947 481.335735 
L 100.196226 480.679749 
L 101.372505 479.778649 
L 102.842854 478.32631 
L 104.607272 476.192647 
L 109.312389 470.158133 
L 110.488668 469.114852 
L 111.370877 468.599825 
L 112.253086 468.366918 
L 112.841226 468.389979 
L 113.429365 468.569205 
L 114.017505 468.914578 
L 114.899714 469.761852 
L 115.781923 471.021142 
L 116.664133 472.701381 
L 117.546342 474.799387 
L 118.722621 478.216922 
L 120.19297 483.373405 
L 121.957388 490.536694 
L 126.662505 510.272103 
L 127.838784 514.186325 
L 129.015063 517.275894 
L 129.897272 518.949029 
L 130.485412 519.724778 
L 131.073551 520.212626 
L 131.661691 520.402088 
L 132.24983 520.285855 
L 132.83797 519.859908 
L 133.426109 519.123591 
L 134.014249 518.079634 
L 134.896458 515.951111 
L 135.778667 513.17925 
L 136.954946 508.57131 
L 138.425295 501.573773 
L 140.189714 491.879835 
L 145.1889 463.347243 
L 146.659248 456.436581 
L 147.835528 451.826208 
L 149.011807 448.156811 
L 149.894016 446.068885 
L 150.776225 444.571212 
L 151.364365 443.904423 
L 151.952504 443.502502 
L 152.540644 443.362829 
L 153.128783 443.480937 
L 153.716923 443.850642 
L 154.305062 444.464172 
L 155.187272 445.821078 
L 156.069481 447.668851 
L 157.24576 450.821913 
L 158.422039 454.65722 
L 159.892388 460.216469 
L 161.950876 468.942021 
L 166.361923 487.956878 
L 168.126341 494.39873 
L 169.59669 498.824102 
L 170.772969 501.636162 
L 171.655178 503.288746 
L 172.537388 504.540857 
L 173.419597 505.395064 
L 174.301806 505.863886 
L 174.889946 505.972823 
L 175.772155 505.852493 
L 176.654364 505.423947 
L 177.536574 504.729251 
L 178.712853 503.470191 
L 180.183201 501.527298 
L 185.182387 494.545555 
L 186.946806 492.643093 
L 188.711224 491.118228 
L 191.063783 489.435977 
L 193.416341 487.683646 
L 194.886689 486.313858 
L 196.357038 484.61199 
L 197.827387 482.52975 
L 199.297736 480.076586 
L 201.356224 476.16334 
L 205.179131 468.724863 
L 206.64948 466.390895 
L 207.825759 464.944909 
L 208.707968 464.162768 
L 209.590178 463.67183 
L 210.472387 463.492718 
L 211.354596 463.637414 
L 212.236805 464.108588 
L 213.119015 464.89926 
L 214.001224 465.992815 
L 215.177503 467.87609 
L 216.647852 470.790719 
L 218.70634 475.528948 
L 221.941108 483.032619 
L 223.411456 485.903426 
L 224.587735 487.792511 
L 225.764015 489.268409 
L 226.646224 490.094774 
L 227.528433 490.686098 
L 228.410642 491.057154 
L 229.292852 491.230618 
L 230.469131 491.205467 
L 231.93948 490.876997 
L 237.232735 489.295677 
L 238.703084 489.196746 
L 240.467503 489.319857 
L 245.172619 489.847081 
L 246.348898 489.708891 
L 247.525177 489.361631 
L 248.701456 488.779068 
L 249.877735 487.95488 
L 251.348084 486.60918 
L 253.112502 484.633191 
L 257.817619 479.063772 
L 259.287967 477.788332 
L 260.464246 477.082457 
L 261.346456 476.765822 
L 262.228665 476.644872 
L 263.110874 476.725019 
L 263.993084 477.005342 
L 264.875293 477.478522 
L 266.051572 478.385047 
L 267.521921 479.88964 
L 269.286339 482.061807 
L 272.521107 486.144516 
L 273.991456 487.60378 
L 275.167735 488.420426 
L 276.049944 488.777126 
L 276.932153 488.885091 
L 277.814362 488.724652 
L 278.696572 488.28344 
L 279.578781 487.557093 
L 280.46099 486.549773 
L 281.637269 484.793282 
L 282.813548 482.616349 
L 284.283897 479.430435 
L 289.871223 466.661566 
L 291.047502 464.770123 
L 291.929711 463.718599 
L 292.81192 463.028034 
L 293.40006 462.784426 
L 293.988199 462.722722 
L 294.576339 462.847804 
L 295.164478 463.162331 
L 295.752618 463.666669 
L 296.634827 464.774188 
L 297.517036 466.287624 
L 298.693316 468.887949 
L 299.869595 472.066362 
L 301.339943 476.665484 
L 304.280641 486.851996 
L 306.633199 494.609407 
L 308.103548 498.741296 
L 309.279827 501.48758 
L 310.456106 503.668938 
L 311.338315 504.916206 
L 312.220525 505.829457 
L 313.102734 506.418283 
L 313.984943 506.700674 
L 314.867152 506.70162 
L 315.749362 506.451442 
L 316.631571 505.983938 
L 317.80785 505.083559 
L 319.278199 503.626575 
L 321.336687 501.204636 
L 323.983315 497.738113 
L 326.335873 494.310785 
L 328.100292 491.343084 
L 329.570641 488.467324 
L 331.040989 485.126686 
L 332.511338 481.265471 
L 334.275757 475.948313 
L 336.334245 468.977569 
L 341.039361 452.682579 
L 342.50971 448.560548 
L 343.685989 445.959301 
L 344.568198 444.509736 
L 345.450408 443.55 
L 346.038547 443.205246 
L 346.626687 443.11 
L 347.214826 443.273536 
L 347.802966 443.702953 
L 348.391105 444.403041 
L 348.979245 445.376177 
L 349.861454 447.346886 
L 350.743663 449.919902 
L 351.919942 454.243861 
L 353.096222 459.50168 
L 354.56657 467.185658 
L 356.625059 479.41603 
L 361.330175 508.165627 
L 362.800524 515.69255 
L 363.976803 520.748553 
L 365.153082 524.777349 
L 366.035291 527.050854 
L 366.9175 528.64066 
L 367.50564 529.307997 
L 368.093779 529.656165 
L 368.681919 529.683701 
L 369.270058 529.391783 
L 369.858198 528.784218 
L 370.446337 527.867415 
L 371.328547 525.932664 
L 372.210756 523.363437 
L 373.387035 519.042817 
L 374.563314 513.841555 
L 376.327733 504.791702 
L 379.85657 484.828123 
L 381.915058 473.933621 
L 383.385407 467.23539 
L 384.561686 462.758655 
L 385.737965 459.183676 
L 386.620174 457.134265 
L 387.502384 455.639168 
L 388.090523 454.948909 
L 388.678663 454.498676 
L 389.266802 454.280984 
L 389.854942 454.285755 
L 390.443081 454.50048 
L 391.031221 454.910423 
L 391.91343 455.854302 
L 392.795639 457.135974 
L 393.971918 459.249079 
L 396.030407 463.565908 
L 398.382965 468.469432 
L 399.853314 471.056397 
L 401.029593 472.724611 
L 402.205872 474.002778 
L 403.382151 474.906976 
L 404.55843 475.494541 
L 406.028779 475.927025 
L 408.675407 476.591181 
L 409.851686 477.159902 
L 410.733895 477.799758 
L 411.616104 478.663402 
L 412.498313 479.775187 
L 413.674593 481.66067 
L 414.850872 483.992214 
L 416.32122 487.441424 
L 418.673778 493.680088 
L 421.026337 499.734382 
L 422.202616 502.275313 
L 423.378895 504.28945 
L 424.261104 505.381693 
L 425.143313 506.073926 
L 425.731453 506.30143 
L 426.319592 506.337672 
L 426.907732 506.182444 
L 427.495871 505.838445 
L 428.378081 504.981353 
L 429.26029 503.742498 
L 430.436569 501.570991 
L 431.906918 498.203989 
L 434.259476 492.007133 
L 436.906104 485.179319 
L 438.376453 481.949643 
L 439.552732 479.784188 
L 440.729011 478.019357 
L 441.90529 476.64373 
L 443.081569 475.614382 
L 444.257848 474.863736 
L 445.728197 474.189681 
L 450.139243 472.386638 
L 451.903662 471.318483 
L 456.608778 468.203739 
L 457.785057 467.820518 
L 458.667266 467.765036 
L 459.549475 467.950967 
L 460.431685 468.409082 
L 461.313894 469.160868 
L 462.196103 470.216832 
L 463.078313 471.575325 
L 464.254592 473.830568 
L 465.72494 477.259583 
L 467.783429 482.798051 
L 470.724126 490.73795 
L 472.194475 494.038446 
L 473.370754 496.113719 
L 474.252964 497.276269 
L 475.135173 498.07171 
L 476.017382 498.48742 
L 476.605522 498.553257 
L 477.193661 498.453471 
L 478.07587 498.00611 
L 478.95808 497.227213 
L 479.840289 496.15433 
L 481.016568 494.345568 
L 482.486917 491.650286 
L 487.192033 482.5773 
L 488.662382 480.380886 
L 489.838661 479.018475 
L 491.01494 478.043679 
L 491.897149 477.573838 
L 492.779359 477.324887 
L 493.661568 477.287922 
L 494.543777 477.449208 
L 495.720056 477.941599 
L 496.896335 478.704487 
L 498.366684 479.952001 
L 500.425172 482.036267 
L 504.248079 485.951237 
L 505.718428 487.157752 
L 507.188777 488.06279 
L 508.365056 488.523586 
L 509.541335 488.721145 
L 510.717614 488.637295 
L 511.893893 488.263105 
L 513.070172 487.599592 
L 514.246451 486.658167 
L 515.7168 485.124871 
L 517.187149 483.256849 
L 519.245637 480.246022 
L 524.244823 472.713467 
L 525.715172 470.90802 
L 527.185521 469.464816 
L 528.3618 468.623623 
L 529.538079 468.097676 
L 530.420288 467.927429 
L 531.302497 467.960966 
L 532.184707 468.207203 
L 533.066916 468.673604 
L 533.949125 469.366026 
L 534.831335 470.288425 
L 536.007614 471.878471 
L 537.183893 473.87572 
L 538.654241 476.919492 
L 540.12459 480.510694 
L 542.183079 486.248388 
L 547.182265 500.672631 
L 548.652613 504.001118 
L 549.828892 506.040068 
L 550.711102 507.13079 
L 551.593311 507.803391 
L 552.18145 508.00569 
L 552.76959 508.004766 
L 553.35773 507.797964 
L 553.945869 507.385215 
L 554.828078 506.386304 
L 555.710288 504.95025 
L 556.592497 503.109764 
L 557.768776 500.1052 
L 559.239125 495.656571 
L 561.885753 486.663352 
L 564.238311 478.902819 
L 565.70866 474.697869 
L 566.884939 471.849821 
L 568.061218 469.519286 
L 569.237497 467.723487 
L 570.119706 466.719864 
L 571.001915 465.99332 
L 571.884125 465.521245 
L 572.766334 465.276477 
L 573.648543 465.229371 
L 574.824822 465.422247 
L 576.001101 465.846852 
L 577.47145 466.621175 
L 579.235869 467.819435 
L 581.000287 469.279608 
L 582.764706 471.045917 
L 584.235055 472.81647 
L 585.705403 474.914127 
L 587.175752 477.366473 
L 588.940171 480.751999 
L 591.586799 486.418636 
L 594.233426 491.930017 
L 595.703775 494.459309 
L 596.880054 496.016896 
L 597.762264 496.849493 
L 598.644473 497.359347 
L 599.526682 497.525612 
L 600.114822 497.44046 
L 600.997031 497.019517 
L 601.87924 496.258182 
L 602.76145 495.181175 
L 603.937729 493.319723 
L 605.408077 490.479905 
L 609.819124 481.43532 
L 610.995403 479.637112 
L 611.877612 478.612853 
L 612.759822 477.90314 
L 613.642031 477.526138 
L 614.52424 477.485619 
L 615.406449 477.770836 
L 616.288659 478.357036 
L 617.170868 479.206584 
L 618.347147 480.663279 
L 620.405635 483.699043 
L 622.464124 486.628114 
L 623.640403 487.942811 
L 624.522612 488.662353 
L 625.404821 489.111405 
L 626.287031 489.265673 
L 627.16924 489.114407 
L 628.051449 488.660671 
L 628.933658 487.920957 
L 630.109937 486.541416 
L 631.580286 484.327599 
L 636.873542 475.712168 
L 638.049821 474.461587 
L 638.93203 473.813469 
L 639.81424 473.434886 
L 640.696449 473.333109 
L 641.578658 473.504683 
L 642.460867 473.936006 
L 643.343077 474.6043 
L 644.519356 475.810089 
L 645.989705 477.69495 
L 651.28296 484.979489 
L 652.459239 486.146167 
L 653.635518 487.01938 
L 654.811797 487.579294 
L 655.988077 487.827814 
L 657.164356 487.786407 
L 658.340635 487.492681 
L 659.810983 486.846869 
L 661.869472 485.624135 
L 665.398309 483.459454 
L 667.162728 482.646591 
L 668.633076 482.182658 
L 670.103425 481.918976 
L 671.867844 481.837302 
L 673.926332 481.976954 
L 679.807727 482.671672 
L 679.807727 482.671672 
" clip-path="url(#pc9dc40640c)" style="fill: none; stroke: #0000ff; stroke-width: 1.5; stroke-linecap: square"/>
   </g>
   <g id="patch_18">
    <path d="M 62.57 534.04 
L 62.57 438.78 
" style="fill: none; stroke: #000000; stroke-width: 0.8; stroke-linejoin: miter; stroke-linecap: square"/>
   </g>
   <g id="patch_19">
    <path d="M 709.2 534.04 
L 709.2 438.78 
" style="fill: none; stroke: #000000; stroke-width: 0.8; stroke-linejoin: miter; stroke-linecap: square"/>
   </g>
   <g id="patch_20">
    <path d="M 62.57 534.04 
L 709.2 534.04 
" style="fill: none; stroke: #000000; stroke-width: 0.8; stroke-linejoin: miter; stroke-linecap: square"/>
   </g>
   <g id="patch_21">
    <path d="M 62.57 438.78 
L 709.2 438.78 
" style="fill: none; stroke: #000000; stroke-width: 0.8; stroke-linejoin: miter; stroke-linecap: square"/>
   </g>
   <g id="text_58">
    <!-- MEC_theta -->
    <g transform="translate(353.851562 432.78)scale(0.12 -0.12)">
     <defs>
      <path id="DejaVuSans-4d" d="M 628 4666 
L 1569 4666 
L 2759 1491 
L 3956 4666 
L 4897 4666 
L 4897 0 
L 4281 0 
L 4281 4097 
L 3078 897 
L 2444 897 
L 1241 4097 
L 1241 0 
L 628 0 
L 628 4666 
z
" transform="scale(0.015625)"/>
      <path id="DejaVuSans-45" d="M 628 4666 
L 3578 4666 
L 3578 4134 
L 1259 4134 
L 1259 2753 
L 3481 2753 
L 3481 2222 
L 1259 2222 
L 1259 531 
L 3634 531 
L 3634 0 
L 628 0 
L 628 4666 
z
" transform="scale(0.015625)"/>
     </defs>
     <use xlink:href="#DejaVuSans-4d"/>
     <use xlink:href="#DejaVuSans-45" x="86.279297"/>
     <use xlink:href="#DejaVuSans-43" x="149.462891"/>
     <use xlink:href="#DejaVuSans-5f" x="219.287109"/>
     <use xlink:href="#DejaVuSans-74" x="269.287109"/>
     <use xlink:href="#DejaVuSans-68" x="308.496094"/>
     <use xlink:href="#DejaVuSans-65" x="371.875"/>
     <use xlink:href="#DejaVuSans-74" x="433.398438"/>
     <use xlink:href="#DejaVuSans-61" x="472.607422"/>
    </g>
   </g>
  </g>
 </g>
 <defs>
  <clipPath id="pfc001f799b">
   <rect x="62.57" y="25.44" width="646.63" height="95.26"/>
  </clipPath>
  <clipPath id="p76fb8a1fc3">
   <rect x="62.57" y="301" width="646.63" height="95.26"/>
  </clipPath>
  <clipPath id="pa44c5b7159">
   <rect x="62.57" y="163.22" width="646.63" height="95.26"/>
  </clipPath>
  <clipPath id="pc9dc40640c">
   <rect x="62.57" y="438.78" width="646.63" height="95.26"/>
  </clipPath>
 </defs>
</svg>
